<svg width="2649" height="2346" xmlns="http://www.w3.org/2000/svg" xmlns:xlink="http://www.w3.org/1999/xlink" xml:space="preserve" overflow="hidden"><defs><clipPath id="clip0"><rect x="325" y="110" width="2649" height="2346"/></clipPath><clipPath id="clip1"><rect x="325" y="110" width="2649" height="2346"/></clipPath><clipPath id="clip2"><rect x="624" y="1233" width="827" height="297"/></clipPath><clipPath id="clip3"><rect x="624" y="1233" width="827" height="298"/></clipPath><clipPath id="clip4"><rect x="2203" y="1234" width="463" height="298"/></clipPath><clipPath id="clip5"><rect x="2203" y="1234" width="464" height="298"/></clipPath></defs><g clip-path="url(#clip0)" transform="translate(-325 -110)"><g clip-path="url(#clip1)"><path d="M598 1415.5C598 841.952 1062.95 377 1636.5 377 2210.05 377 2675 841.952 2675 1415.5 2675 1989.05 2210.05 2454 1636.5 2454 1062.95 2454 598 1989.05 598 1415.5Z" fill="#000000" fill-rule="evenodd" fill-opacity="1"/><rect x="327" y="111" width="2646" height="1418" fill="#FFFFFF" fill-opacity="1"/><path d="M1418 1529C1558.97 1301.36 1606.98 1067.71 1625 774 1650.52 1067.71 1692.53 1304.36 1832 1529L1418 1529Z" fill="#000000" fill-rule="evenodd" fill-opacity="1"/><path d="M998 583 1583 1175.5" stroke="#000000" stroke-width="27.5" stroke-linecap="butt" stroke-linejoin="miter" stroke-miterlimit="8" stroke-opacity="1" fill="none" fill-rule="evenodd"/><path d="M0 0 474 0.000360892" stroke="#000000" stroke-width="27.5" stroke-linecap="butt" stroke-linejoin="miter" stroke-miterlimit="8" stroke-opacity="1" fill="none" fill-rule="evenodd" transform="matrix(-1 0 0 1 1311 902)"/><path d="M870 738 1036.5 901.5" stroke="#000000" stroke-width="27.5" stroke-linecap="butt" stroke-linejoin="miter" stroke-miterlimit="8" stroke-opacity="1" fill="none" fill-rule="evenodd"/><path d="M0 0 465 0.000360892" stroke="#000000" stroke-width="27.5" stroke-linecap="butt" stroke-linejoin="miter" stroke-miterlimit="8" stroke-opacity="1" fill="none" fill-rule="evenodd" transform="matrix(-1 0 0 1 1373 969)"/><path d="M0 0 292 0.000360892" stroke="#000000" stroke-width="27.5" stroke-linecap="butt" stroke-linejoin="miter" stroke-miterlimit="8" stroke-opacity="1" fill="none" fill-rule="evenodd" transform="matrix(-1 0 0 1 1436 1030)"/><path d="M0 0 228.5 0.000360892" stroke="#000000" stroke-width="27.5" stroke-linecap="butt" stroke-linejoin="miter" stroke-miterlimit="8" stroke-opacity="1" fill="none" fill-rule="evenodd" transform="matrix(-1 0 0 1 1491.5 1085)"/><path d="M0 0 154.875 148.302" stroke="#000000" stroke-width="27.5" stroke-linecap="butt" stroke-linejoin="miter" stroke-miterlimit="8" stroke-opacity="1" fill="none" fill-rule="evenodd" transform="matrix(-1 0 0 1 1152.87 1027)"/><path d="M0 0 157.875 154.742" stroke="#000000" stroke-width="27.5" stroke-linecap="butt" stroke-linejoin="miter" stroke-miterlimit="8" stroke-opacity="1" fill="none" fill-rule="evenodd" transform="matrix(-1 0 0 1 1272.87 1080)"/><path d="M0 0 249.597 242.378" stroke="#000000" stroke-width="27.5" stroke-linecap="butt" stroke-linejoin="miter" stroke-miterlimit="8" stroke-opacity="1" fill="none" fill-rule="evenodd" transform="matrix(-1 0 0 1 1231.6 1033)"/><path d="M0 0 115.374 114.082" stroke="#000000" stroke-width="27.5" stroke-linecap="butt" stroke-linejoin="miter" stroke-miterlimit="8" stroke-opacity="1" fill="none" fill-rule="evenodd" transform="matrix(-1 0 0 1 1134.37 966)"/><path d="M1217 726 1620.35 1127.59" stroke="#000000" stroke-width="27.5" stroke-linecap="butt" stroke-linejoin="miter" stroke-miterlimit="8" stroke-opacity="1" fill="none" fill-rule="evenodd"/><path d="M1270 705 1620.52 1053.57" stroke="#000000" stroke-width="27.5" stroke-linecap="butt" stroke-linejoin="miter" stroke-miterlimit="8" stroke-opacity="1" fill="none" fill-rule="evenodd"/><path d="M1326 672 1618.55 959.455" stroke="#000000" stroke-width="27.5" stroke-linecap="butt" stroke-linejoin="miter" stroke-miterlimit="8" stroke-opacity="1" fill="none" fill-rule="evenodd"/><path d="M1415 668 1622.11 875.272" stroke="#000000" stroke-width="27.5" stroke-linecap="butt" stroke-linejoin="miter" stroke-miterlimit="8" stroke-opacity="1" fill="none" fill-rule="evenodd"/><path d="M1418 377 1418 676.709" stroke="#000000" stroke-width="27.5" stroke-linecap="butt" stroke-linejoin="miter" stroke-miterlimit="8" stroke-opacity="1" fill="none" fill-rule="evenodd"/><path d="M1329 377 1329 682.21" stroke="#000000" stroke-width="27.5" stroke-linecap="butt" stroke-linejoin="miter" stroke-miterlimit="8" stroke-opacity="1" fill="none" fill-rule="evenodd"/><path d="M1274 499 1274 714.71" stroke="#000000" stroke-width="27.5" stroke-linecap="butt" stroke-linejoin="miter" stroke-miterlimit="8" stroke-opacity="1" fill="none" fill-rule="evenodd"/><path d="M1220 519 1220 734.71" stroke="#000000" stroke-width="27.5" stroke-linecap="butt" stroke-linejoin="miter" stroke-miterlimit="8" stroke-opacity="1" fill="none" fill-rule="evenodd"/><path d="M1142 440 1222.83 528.303" stroke="#000000" stroke-width="27.5" stroke-linecap="butt" stroke-linejoin="miter" stroke-miterlimit="8" stroke-opacity="1" fill="none" fill-rule="evenodd"/><path d="M0 0 0.12523 154.5" stroke="#000000" stroke-width="27.5" stroke-linecap="butt" stroke-linejoin="miter" stroke-miterlimit="8" stroke-opacity="1" fill="none" fill-rule="evenodd" transform="matrix(-1 0 0 1 1153.13 583)"/><path d="M1059 821 1231.87 821" stroke="#000000" stroke-width="27.5" stroke-linecap="butt" stroke-linejoin="miter" stroke-miterlimit="8" stroke-opacity="1" fill="none" fill-rule="evenodd"/><path d="M982 677 1083.66 677" stroke="#000000" stroke-width="27.5" stroke-linecap="butt" stroke-linejoin="miter" stroke-miterlimit="8" stroke-opacity="1" fill="none" fill-rule="evenodd"/><path d="M806 1033 951.311 1033" stroke="#000000" stroke-width="27.5" stroke-linecap="butt" stroke-linejoin="miter" stroke-miterlimit="8" stroke-opacity="1" fill="none" fill-rule="evenodd"/><path d="M837 1170 1009.5 1170" stroke="#000000" stroke-width="27.5" stroke-linecap="butt" stroke-linejoin="miter" stroke-miterlimit="8" stroke-opacity="1" fill="none" fill-rule="evenodd"/><path d="M0 0 67.4576 63.9411" stroke="#000000" stroke-width="27.5" stroke-linecap="butt" stroke-linejoin="miter" stroke-miterlimit="8" stroke-opacity="1" fill="none" fill-rule="evenodd" transform="matrix(1 0 0 -1 942 1035.94)"/><path d="M0 0 67.4576 63.9411" stroke="#000000" stroke-width="27.5" stroke-linecap="butt" stroke-linejoin="miter" stroke-miterlimit="8" stroke-opacity="1" fill="none" fill-rule="evenodd" transform="matrix(1 0 0 -1 1305 1147.94)"/><path d="M0 0 52.0187 46.5006" stroke="#000000" stroke-width="27.5" stroke-linecap="butt" stroke-linejoin="miter" stroke-miterlimit="8" stroke-opacity="1" fill="none" fill-rule="evenodd" transform="matrix(1 0 0 -1 1451 1145.5)"/><path d="M1625 268 1625 959.362" stroke="#000000" stroke-width="27.5" stroke-linecap="butt" stroke-linejoin="miter" stroke-miterlimit="8" stroke-opacity="1" fill="none" fill-rule="evenodd"/><path d="M1545 682 1545 795.557" stroke="#000000" stroke-width="27.5" stroke-linecap="butt" stroke-linejoin="miter" stroke-miterlimit="8" stroke-opacity="1" fill="none" fill-rule="evenodd"/><path d="M1526 350 1526 552.557" stroke="#000000" stroke-width="27.5" stroke-linecap="butt" stroke-linejoin="miter" stroke-miterlimit="8" stroke-opacity="1" fill="none" fill-rule="evenodd"/><path d="M1719 351 1719 551.278" stroke="#000000" stroke-width="27.5" stroke-linecap="butt" stroke-linejoin="miter" stroke-miterlimit="8" stroke-opacity="1" fill="none" fill-rule="evenodd"/><path d="M1525 543 1621.59 641.808" stroke="#000000" stroke-width="27.5" stroke-linecap="butt" stroke-linejoin="miter" stroke-miterlimit="8" stroke-opacity="1" fill="none" fill-rule="evenodd"/><path d="M0 0 101.082 106.967" stroke="#000000" stroke-width="27.5" stroke-linecap="butt" stroke-linejoin="miter" stroke-miterlimit="8" stroke-opacity="1" fill="none" fill-rule="evenodd" transform="matrix(-1 0 0 1 1722.08 543)"/><g><g><g><path d="M2088 1479.5 1908 1479.5 1908 1359.5 2088 1359.5 2088 1479.5ZM2095.5 1337 1900.5 1337C1892.25 1337 1885.5 1343.75 1885.5 1352L1885.5 1487C1885.5 1495.25 1892.25 1502 1900.5 1502L1975.5 1502 1975.5 1524.5 1941.75 1524.5 1941.75 1547 2054.25 1547 2054.25 1524.5 2020.5 1524.5 2020.5 1502 2095.5 1502C2103.75 1502 2110.5 1495.25 2110.5 1487L2110.5 1352C2110.5 1343.75 2103.75 1337 2095.5 1337Z" fill="#000000" fill-rule="nonzero" fill-opacity="1"/><path d="M2215.5 1374.5 2140.5 1374.5 2140.5 1352 2215.5 1352 2215.5 1374.5ZM2215.5 1412 2140.5 1412 2140.5 1389.5 2215.5 1389.5 2215.5 1412ZM2178 1524.5C2171.62 1524.5 2166.75 1519.62 2166.75 1513.25 2166.75 1506.88 2171.62 1502 2178 1502 2184.38 1502 2189.25 1506.88 2189.25 1513.25 2189.25 1519.62 2184.38 1524.5 2178 1524.5ZM2215.5 1337 2140.5 1337C2132.25 1337 2125.5 1343.75 2125.5 1352L2125.5 1532C2125.5 1540.25 2132.25 1547 2140.5 1547L2215.5 1547C2223.75 1547 2230.5 1540.25 2230.5 1532L2230.5 1352C2230.5 1343.75 2223.75 1337 2215.5 1337Z" fill="#000000" fill-rule="nonzero" fill-opacity="1"/></g></g></g><path d="M0 0 211.802 218.766" stroke="#000000" stroke-width="27.5" stroke-linecap="butt" stroke-linejoin="miter" stroke-miterlimit="8" stroke-opacity="1" fill="none" fill-rule="evenodd" transform="matrix(-1 0 0 1 1834.8 664)"/><path d="M0 0 290.941 286.205" stroke="#000000" stroke-width="27.5" stroke-linecap="butt" stroke-linejoin="miter" stroke-miterlimit="8" stroke-opacity="1" fill="none" fill-rule="evenodd" transform="matrix(-1 0 0 1 1922.94 676)"/><path d="M0 0 345.851 344.875" stroke="#000000" stroke-width="27.5" stroke-linecap="butt" stroke-linejoin="miter" stroke-miterlimit="8" stroke-opacity="1" fill="none" fill-rule="evenodd" transform="matrix(-1 0 0 1 1976.85 705)"/><path d="M0 0 384.651 390.704" stroke="#000000" stroke-width="27.5" stroke-linecap="butt" stroke-linejoin="miter" stroke-miterlimit="8" stroke-opacity="1" fill="none" fill-rule="evenodd" transform="matrix(-1 0 0 1 2034.65 726)"/><path d="M0 0 600.286 599.184" stroke="#000000" stroke-width="27.5" stroke-linecap="butt" stroke-linejoin="miter" stroke-miterlimit="8" stroke-opacity="1" fill="none" fill-rule="evenodd" transform="matrix(-1 0 0 1 2256.29 588)"/><path d="M1706 682 1706 795.557" stroke="#000000" stroke-width="27.5" stroke-linecap="butt" stroke-linejoin="miter" stroke-miterlimit="8" stroke-opacity="1" fill="none" fill-rule="evenodd"/><path d="M1778 610 1778 723.557" stroke="#000000" stroke-width="27.5" stroke-linecap="butt" stroke-linejoin="miter" stroke-miterlimit="8" stroke-opacity="1" fill="none" fill-rule="evenodd"/><path d="M1480 618 1480 731.557" stroke="#000000" stroke-width="27.5" stroke-linecap="butt" stroke-linejoin="miter" stroke-miterlimit="8" stroke-opacity="1" fill="none" fill-rule="evenodd"/><path d="M1830 377 1830 674.3" stroke="#000000" stroke-width="27.5" stroke-linecap="butt" stroke-linejoin="miter" stroke-miterlimit="8" stroke-opacity="1" fill="none" fill-rule="evenodd"/><path d="M1919 389 1919 686.3" stroke="#000000" stroke-width="27.5" stroke-linecap="butt" stroke-linejoin="miter" stroke-miterlimit="8" stroke-opacity="1" fill="none" fill-rule="evenodd"/><path d="M1973 484 1973 715.059" stroke="#000000" stroke-width="27.5" stroke-linecap="butt" stroke-linejoin="miter" stroke-miterlimit="8" stroke-opacity="1" fill="none" fill-rule="evenodd"/><path d="M2031 519 2031 733.098" stroke="#000000" stroke-width="27.5" stroke-linecap="butt" stroke-linejoin="miter" stroke-miterlimit="8" stroke-opacity="1" fill="none" fill-rule="evenodd"/><path d="M2104 592 2104 734.703" stroke="#000000" stroke-width="27.5" stroke-linecap="butt" stroke-linejoin="miter" stroke-miterlimit="8" stroke-opacity="1" fill="none" fill-rule="evenodd"/><path d="M0 0 172.156 0.000360892" stroke="#000000" stroke-width="27.5" stroke-linecap="butt" stroke-linejoin="miter" stroke-miterlimit="8" stroke-opacity="1" fill="none" fill-rule="evenodd" transform="matrix(-1 0 0 1 2193.16 826)"/><path d="M0 0 492.031 0.000360892" stroke="#000000" stroke-width="27.5" stroke-linecap="butt" stroke-linejoin="miter" stroke-miterlimit="8" stroke-opacity="1" fill="none" fill-rule="evenodd" transform="matrix(-1 0 0 1 2423.03 908)"/><path d="M0 0 492.031 0.000360892" stroke="#000000" stroke-width="27.5" stroke-linecap="butt" stroke-linejoin="miter" stroke-miterlimit="8" stroke-opacity="1" fill="none" fill-rule="evenodd" transform="matrix(-1 0 0 1 2361.03 975)"/><path d="M0 0 303.374 0.000360892" stroke="#000000" stroke-width="27.5" stroke-linecap="butt" stroke-linejoin="miter" stroke-miterlimit="8" stroke-opacity="1" fill="none" fill-rule="evenodd" transform="matrix(-1 0 0 1 2115.37 1033)"/><path d="M0 0 236.145 0.000360892" stroke="#000000" stroke-width="27.5" stroke-linecap="butt" stroke-linejoin="miter" stroke-miterlimit="8" stroke-opacity="1" fill="none" fill-rule="evenodd" transform="matrix(-1 0 0 1 1987.14 1084)"/><path d="M2258.42 1174.37 2105 1029" stroke="#000000" stroke-width="27.5" stroke-linecap="butt" stroke-linejoin="miter" stroke-miterlimit="8" stroke-opacity="1" fill="none" fill-rule="evenodd"/><path d="M2158.63 1264.09 1978 1080" stroke="#000000" stroke-width="27.5" stroke-linecap="butt" stroke-linejoin="miter" stroke-miterlimit="8" stroke-opacity="1" fill="none" fill-rule="evenodd"/><path d="M1956.12 1161.41 1882 1087" stroke="#000000" stroke-width="27.5" stroke-linecap="butt" stroke-linejoin="miter" stroke-miterlimit="8" stroke-opacity="1" fill="none" fill-rule="evenodd"/><path d="M1795.02 1150.25 1744 1099" stroke="#000000" stroke-width="27.5" stroke-linecap="butt" stroke-linejoin="miter" stroke-miterlimit="8" stroke-opacity="1" fill="none" fill-rule="evenodd"/><path d="M0 0 165.412 169.517" stroke="#000000" stroke-width="27.5" stroke-linecap="butt" stroke-linejoin="miter" stroke-miterlimit="8" stroke-opacity="1" fill="none" fill-rule="evenodd" transform="matrix(-1 0 0 1 2380.41 742)"/><path d="M0 0 107.503 101.686" stroke="#000000" stroke-width="27.5" stroke-linecap="butt" stroke-linejoin="miter" stroke-miterlimit="8" stroke-opacity="1" fill="none" fill-rule="evenodd" transform="matrix(-1 0 0 1 2291.5 729)"/><path d="M0 0 172.156 0.000360892" stroke="#000000" stroke-width="27.5" stroke-linecap="butt" stroke-linejoin="miter" stroke-miterlimit="8" stroke-opacity="1" fill="none" fill-rule="evenodd" transform="matrix(-1 0 0 1 2420.16 1170)"/><path d="M0 0 172.156 0.000360892" stroke="#000000" stroke-width="27.5" stroke-linecap="butt" stroke-linejoin="miter" stroke-miterlimit="8" stroke-opacity="1" fill="none" fill-rule="evenodd" transform="matrix(-1 0 0 1 2469.16 1034)"/><path d="M2307.8 1037.74 2241 976" stroke="#000000" stroke-width="27.5" stroke-linecap="butt" stroke-linejoin="miter" stroke-miterlimit="8" stroke-opacity="1" fill="none" fill-rule="evenodd"/><path d="M1398 1154.5C1398 1133.24 1415.01 1116 1436 1116 1456.99 1116 1474 1133.24 1474 1154.5 1474 1175.76 1456.99 1193 1436 1193 1415.01 1193 1398 1175.76 1398 1154.5Z" fill="#000000" fill-rule="evenodd" fill-opacity="1"/><path d="M1257 1160C1257 1139.01 1274.24 1122 1295.5 1122 1316.76 1122 1334 1139.01 1334 1160 1334 1180.99 1316.76 1198 1295.5 1198 1274.24 1198 1257 1180.99 1257 1160Z" fill="#000000" fill-rule="evenodd" fill-opacity="1"/><path d="M1080 1237.5C1080 1216.24 1097.24 1199 1118.5 1199 1139.76 1199 1157 1216.24 1157 1237.5 1157 1258.76 1139.76 1276 1118.5 1276 1097.24 1276 1080 1258.76 1080 1237.5Z" fill="#000000" fill-rule="evenodd" fill-opacity="1"/><path d="M937 1284C937 1263.01 954.237 1246 975.5 1246 996.763 1246 1014 1263.01 1014 1284 1014 1304.99 996.763 1322 975.5 1322 954.237 1322 937 1304.99 937 1284Z" fill="#000000" fill-rule="evenodd" fill-opacity="1"/><path d="M795 1170C795 1149.01 812.013 1132 833 1132 853.987 1132 871 1149.01 871 1170 871 1190.99 853.987 1208 833 1208 812.013 1208 795 1190.99 795 1170Z" fill="#000000" fill-rule="evenodd" fill-opacity="1"/><path d="M972 1080.5C972 1059.24 989.237 1042 1010.5 1042 1031.76 1042 1049 1059.24 1049 1080.5 1049 1101.76 1031.76 1119 1010.5 1119 989.237 1119 972 1101.76 972 1080.5Z" fill="#000000" fill-rule="evenodd" fill-opacity="1"/><path d="M752 1032.5C752 1011.24 769.237 994 790.5 994 811.763 994 829 1011.24 829 1032.5 829 1053.76 811.763 1071 790.5 1071 769.237 1071 752 1053.76 752 1032.5Z" fill="#000000" fill-rule="evenodd" fill-opacity="1"/><path d="M860 968.5C860 947.237 877.013 930 898 930 918.987 930 936 947.237 936 968.5 936 989.763 918.987 1007 898 1007 877.013 1007 860 989.763 860 968.5Z" fill="#000000" fill-rule="evenodd" fill-opacity="1"/><path d="M795 900.5C795 879.237 812.013 862 833 862 853.987 862 871 879.237 871 900.5 871 921.763 853.987 939 833 939 812.013 939 795 921.763 795 900.5Z" fill="#000000" fill-rule="evenodd" fill-opacity="1"/><path d="M819 726.5C819 705.237 836.237 688 857.5 688 878.763 688 896 705.237 896 726.5 896 747.763 878.763 765 857.5 765 836.237 765 819 747.763 819 726.5Z" fill="#000000" fill-rule="evenodd" fill-opacity="1"/><path d="M1000 821.5C1000 800.237 1017.24 783 1038.5 783 1059.76 783 1077 800.237 1077 821.5 1077 842.763 1059.76 860 1038.5 860 1017.24 860 1000 842.763 1000 821.5Z" fill="#000000" fill-rule="evenodd" fill-opacity="1"/><path d="M926 674C926 653.013 943.237 636 964.5 636 985.763 636 1003 653.013 1003 674 1003 694.987 985.763 712 964.5 712 943.237 712 926 694.987 926 674Z" fill="#000000" fill-rule="evenodd" fill-opacity="1"/><path d="M954 575.5C954 554.237 971.237 537 992.5 537 1013.76 537 1031 554.237 1031 575.5 1031 596.763 1013.76 614 992.5 614 971.237 614 954 596.763 954 575.5Z" fill="#000000" fill-rule="evenodd" fill-opacity="1"/><path d="M1116 569C1116 548.013 1133.01 531 1154 531 1174.99 531 1192 548.013 1192 569 1192 589.987 1174.99 607 1154 607 1133.01 607 1116 589.987 1116 569Z" fill="#000000" fill-rule="evenodd" fill-opacity="1"/><path d="M1095 435C1095 414.013 1112.24 397 1133.5 397 1154.76 397 1172 414.013 1172 435 1172 455.987 1154.76 473 1133.5 473 1112.24 473 1095 455.987 1095 435Z" fill="#000000" fill-rule="evenodd" fill-opacity="1"/><path d="M1235 486.5C1235 465.237 1252.01 448 1273 448 1293.99 448 1311 465.237 1311 486.5 1311 507.763 1293.99 525 1273 525 1252.01 525 1235 507.763 1235 486.5Z" fill="#000000" fill-rule="evenodd" fill-opacity="1"/><path d="M1290 357.5C1290 336.237 1307.01 319 1328 319 1348.99 319 1366 336.237 1366 357.5 1366 378.763 1348.99 396 1328 396 1307.01 396 1290 378.763 1290 357.5Z" fill="#000000" fill-rule="evenodd" fill-opacity="1"/><path d="M1380 359.5C1380 338.237 1397.24 321 1418.5 321 1439.76 321 1457 338.237 1457 359.5 1457 380.763 1439.76 398 1418.5 398 1397.24 398 1380 380.763 1380 359.5Z" fill="#000000" fill-rule="evenodd" fill-opacity="1"/><path d="M1442 608.5C1442 587.237 1459.01 570 1480 570 1500.99 570 1518 587.237 1518 608.5 1518 629.763 1500.99 647 1480 647 1459.01 647 1442 629.763 1442 608.5Z" fill="#000000" fill-rule="evenodd" fill-opacity="1"/><path d="M1507 682.5C1507 661.237 1524.24 644 1545.5 644 1566.76 644 1584 661.237 1584 682.5 1584 703.763 1566.76 721 1545.5 721 1524.24 721 1507 703.763 1507 682.5Z" fill="#000000" fill-rule="evenodd" fill-opacity="1"/><path d="M1486 330C1486 309.013 1503.24 292 1524.5 292 1545.76 292 1563 309.013 1563 330 1563 350.987 1545.76 368 1524.5 368 1503.24 368 1486 350.987 1486 330Z" fill="#000000" fill-rule="evenodd" fill-opacity="1"/><path d="M1587 256C1587 235.013 1604.01 218 1625 218 1645.99 218 1663 235.013 1663 256 1663 276.987 1645.99 294 1625 294 1604.01 294 1587 276.987 1587 256Z" fill="#000000" fill-rule="evenodd" fill-opacity="1"/><path d="M1681 334C1681 313.013 1698.24 296 1719.5 296 1740.76 296 1758 313.013 1758 334 1758 354.987 1740.76 372 1719.5 372 1698.24 372 1681 354.987 1681 334Z" fill="#000000" fill-rule="evenodd" fill-opacity="1"/><path d="M1669 680C1669 659.013 1686.24 642 1707.5 642 1728.76 642 1746 659.013 1746 680 1746 700.987 1728.76 718 1707.5 718 1686.24 718 1669 700.987 1669 680Z" fill="#000000" fill-rule="evenodd" fill-opacity="1"/><path d="M1738 601C1738 580.013 1755.01 563 1776 563 1796.99 563 1814 580.013 1814 601 1814 621.987 1796.99 639 1776 639 1755.01 639 1738 621.987 1738 601Z" fill="#000000" fill-rule="evenodd" fill-opacity="1"/><path d="M1792 366.5C1792 345.237 1809.24 328 1830.5 328 1851.76 328 1869 345.237 1869 366.5 1869 387.763 1851.76 405 1830.5 405 1809.24 405 1792 387.763 1792 366.5Z" fill="#000000" fill-rule="evenodd" fill-opacity="1"/><path d="M1883 378C1883 357.013 1900.01 340 1921 340 1941.99 340 1959 357.013 1959 378 1959 398.987 1941.99 416 1921 416 1900.01 416 1883 398.987 1883 378Z" fill="#000000" fill-rule="evenodd" fill-opacity="1"/><path d="M1937 470.5C1937 449.237 1954.24 432 1975.5 432 1996.76 432 2014 449.237 2014 470.5 2014 491.763 1996.76 509 1975.5 509 1954.24 509 1937 491.763 1937 470.5Z" fill="#000000" fill-rule="evenodd" fill-opacity="1"/><path d="M2075 446C2075 425.013 2092.01 408 2113 408 2133.99 408 2151 425.013 2151 446 2151 466.987 2133.99 484 2113 484 2092.01 484 2075 466.987 2075 446Z" fill="#000000" fill-rule="evenodd" fill-opacity="1"/><path d="M0 0 107.503 101.686" stroke="#000000" stroke-width="27.5" stroke-linecap="butt" stroke-linejoin="miter" stroke-miterlimit="8" stroke-opacity="1" fill="none" fill-rule="evenodd" transform="matrix(-1 0 0 1 2133.5 430)"/><path d="M2066 582C2066 561.013 2083.01 544 2104 544 2124.99 544 2142 561.013 2142 582 2142 602.987 2124.99 620 2104 620 2083.01 620 2066 602.987 2066 582Z" fill="#000000" fill-rule="evenodd" fill-opacity="1"/><path d="M2229 572.5C2229 551.237 2246.24 534 2267.5 534 2288.76 534 2306 551.237 2306 572.5 2306 593.763 2288.76 611 2267.5 611 2246.24 611 2229 593.763 2229 572.5Z" fill="#000000" fill-rule="evenodd" fill-opacity="1"/><path d="M2254 718.5C2254 697.237 2271.24 680 2292.5 680 2313.76 680 2331 697.237 2331 718.5 2331 739.763 2313.76 757 2292.5 757 2271.24 757 2254 739.763 2254 718.5Z" fill="#000000" fill-rule="evenodd" fill-opacity="1"/><path d="M2351 729C2351 708.013 2368.01 691 2389 691 2409.99 691 2427 708.013 2427 729 2427 749.987 2409.99 767 2389 767 2368.01 767 2351 749.987 2351 729Z" fill="#000000" fill-rule="evenodd" fill-opacity="1"/><path d="M2395 905C2395 884.013 2412.01 867 2433 867 2453.99 867 2471 884.013 2471 905 2471 925.987 2453.99 943 2433 943 2412.01 943 2395 925.987 2395 905Z" fill="#000000" fill-rule="evenodd" fill-opacity="1"/><path d="M2323 972C2323 951.013 2340.01 934 2361 934 2381.99 934 2399 951.013 2399 972 2399 992.987 2381.99 1010 2361 1010 2340.01 1010 2323 992.987 2323 972Z" fill="#000000" fill-rule="evenodd" fill-opacity="1"/><path d="M2443 1029C2443 1008.01 2460.24 991 2481.5 991 2502.76 991 2520 1008.01 2520 1029 2520 1049.99 2502.76 1067 2481.5 1067 2460.24 1067 2443 1049.99 2443 1029Z" fill="#000000" fill-rule="evenodd" fill-opacity="1"/><path d="M2389 1170.5C2389 1149.24 2406.01 1132 2427 1132 2447.99 1132 2465 1149.24 2465 1170.5 2465 1191.76 2447.99 1209 2427 1209 2406.01 1209 2389 1191.76 2389 1170.5Z" fill="#000000" fill-rule="evenodd" fill-opacity="1"/><path d="M2125 1270C2125 1249.01 2142.01 1232 2163 1232 2183.99 1232 2201 1249.01 2201 1270 2201 1290.99 2183.99 1308 2163 1308 2142.01 1308 2125 1290.99 2125 1270Z" fill="#000000" fill-rule="evenodd" fill-opacity="1"/><path d="M1924 1168.5C1924 1147.24 1941.24 1130 1962.5 1130 1983.76 1130 2001 1147.24 2001 1168.5 2001 1189.76 1983.76 1207 1962.5 1207 1941.24 1207 1924 1189.76 1924 1168.5Z" fill="#000000" fill-rule="evenodd" fill-opacity="1"/><path d="M1766 1156.5C1766 1135.24 1783.01 1118 1804 1118 1824.99 1118 1842 1135.24 1842 1156.5 1842 1177.76 1824.99 1195 1804 1195 1783.01 1195 1766 1177.76 1766 1156.5Z" fill="#000000" fill-rule="evenodd" fill-opacity="1"/><path d="M0 0 268.062 266.672" stroke="#7F7F7F" stroke-width="27.5" stroke-linecap="butt" stroke-linejoin="miter" stroke-miterlimit="8" stroke-opacity="1" fill="none" fill-rule="evenodd" transform="matrix(-1 0 0 1 1461.06 1555)"/><path d="M0 0 426.167 418.401" stroke="#7F7F7F" stroke-width="27.5" stroke-linecap="butt" stroke-linejoin="miter" stroke-miterlimit="8" stroke-opacity="1" fill="none" fill-rule="evenodd" transform="matrix(-1 0 0 1 1545.17 1560)"/><path d="M0 0 245.595 240.209" stroke="#7F7F7F" stroke-width="27.5" stroke-linecap="butt" stroke-linejoin="miter" stroke-miterlimit="8" stroke-opacity="1" fill="none" fill-rule="evenodd" transform="matrix(-1 0 0 1 1438.6 1766)"/><path d="M0 0 117.162 116.171" stroke="#7F7F7F" stroke-width="27.5" stroke-linecap="butt" stroke-linejoin="miter" stroke-miterlimit="8" stroke-opacity="1" fill="none" fill-rule="evenodd" transform="matrix(-1 0 0 1 1495.16 1810)"/><path d="M0 0 117.162 116.171" stroke="#7F7F7F" stroke-width="27.5" stroke-linecap="butt" stroke-linejoin="miter" stroke-miterlimit="8" stroke-opacity="1" fill="none" fill-rule="evenodd" transform="matrix(-1 0 0 1 1545.16 1833)"/><path d="M0 0 70.3708 67.2241" stroke="#7F7F7F" stroke-width="27.5" stroke-linecap="butt" stroke-linejoin="miter" stroke-miterlimit="8" stroke-opacity="1" fill="none" fill-rule="evenodd" transform="matrix(-1 0 0 1 1550.37 1932)"/><path d="M1591 1543 1591 2038.11" stroke="#7F7F7F" stroke-width="27.5" stroke-linecap="butt" stroke-linejoin="miter" stroke-miterlimit="8" stroke-opacity="1" fill="none" fill-rule="evenodd"/><path d="M1647 1543 1647 2324.16" stroke="#7F7F7F" stroke-width="27.5" stroke-linecap="butt" stroke-linejoin="miter" stroke-miterlimit="8" stroke-opacity="1" fill="none" fill-rule="evenodd"/><path d="M1702 1541 1702 2127.7" stroke="#7F7F7F" stroke-width="27.5" stroke-linecap="butt" stroke-linejoin="miter" stroke-miterlimit="8" stroke-opacity="1" fill="none" fill-rule="evenodd"/><path d="M1545 1543 1545 1941.69" stroke="#7F7F7F" stroke-width="27.5" stroke-linecap="butt" stroke-linejoin="miter" stroke-miterlimit="8" stroke-opacity="1" fill="none" fill-rule="evenodd"/><path d="M1490 1610 1490 1821.13" stroke="#7F7F7F" stroke-width="27.5" stroke-linecap="butt" stroke-linejoin="miter" stroke-miterlimit="8" stroke-opacity="1" fill="none" fill-rule="evenodd"/><path d="M1433 1672 1433 1778.43" stroke="#7F7F7F" stroke-width="27.5" stroke-linecap="butt" stroke-linejoin="miter" stroke-miterlimit="8" stroke-opacity="1" fill="none" fill-rule="evenodd"/><path d="M1432 1940 1432 2088.08" stroke="#7F7F7F" stroke-width="27.5" stroke-linecap="butt" stroke-linejoin="miter" stroke-miterlimit="8" stroke-opacity="1" fill="none" fill-rule="evenodd"/><path d="M1383 1916 1383 2241.05" stroke="#7F7F7F" stroke-width="27.5" stroke-linecap="butt" stroke-linejoin="miter" stroke-miterlimit="8" stroke-opacity="1" fill="none" fill-rule="evenodd"/><path d="M1308 1891 1308 2036.55" stroke="#7F7F7F" stroke-width="27.5" stroke-linecap="butt" stroke-linejoin="miter" stroke-miterlimit="8" stroke-opacity="1" fill="none" fill-rule="evenodd"/><path d="M1123 1970 1123 2155.82" stroke="#7F7F7F" stroke-width="27.5" stroke-linecap="butt" stroke-linejoin="miter" stroke-miterlimit="8" stroke-opacity="1" fill="none" fill-rule="evenodd"/><path d="M1198 1996 1198 2090.69" stroke="#7F7F7F" stroke-width="27.5" stroke-linecap="butt" stroke-linejoin="miter" stroke-miterlimit="8" stroke-opacity="1" fill="none" fill-rule="evenodd"/><path d="M0 0 50.2442 46.0748" stroke="#7F7F7F" stroke-width="27.5" stroke-linecap="butt" stroke-linejoin="miter" stroke-miterlimit="8" stroke-opacity="1" fill="none" fill-rule="evenodd" transform="matrix(-1 0 0 1 1595.24 2025)"/><path d="M0 0 293.084 0.000360892" stroke="#7F7F7F" stroke-width="27.5" stroke-linecap="butt" stroke-linejoin="miter" stroke-miterlimit="8" stroke-opacity="1" fill="none" fill-rule="evenodd" transform="matrix(-1 0 0 1 1201.08 1816)"/><path d="M0 0 248.827 0.000360892" stroke="#7F7F7F" stroke-width="27.5" stroke-linecap="butt" stroke-linejoin="miter" stroke-miterlimit="8" stroke-opacity="1" fill="none" fill-rule="evenodd" transform="matrix(-1 0 0 1 1269.83 1748)"/><path d="M0 0 189.686 0.000360892" stroke="#7F7F7F" stroke-width="27.5" stroke-linecap="butt" stroke-linejoin="miter" stroke-miterlimit="8" stroke-opacity="1" fill="none" fill-rule="evenodd" transform="matrix(-1 0 0 1 1338.69 1674)"/><path d="M1019 1881 1019 1942.9" stroke="#7F7F7F" stroke-width="27.5" stroke-linecap="butt" stroke-linejoin="miter" stroke-miterlimit="8" stroke-opacity="1" fill="none" fill-rule="evenodd"/><path d="M0 0 94.0922 77.8268" stroke="#7F7F7F" stroke-width="27.5" stroke-linecap="butt" stroke-linejoin="miter" stroke-miterlimit="8" stroke-opacity="1" fill="none" fill-rule="evenodd" transform="matrix(-1 0 0 1 1108.09 1812)"/><path d="M2130.17 1982.92 1704 1558" stroke="#7F7F7F" stroke-width="27.5" stroke-linecap="butt" stroke-linejoin="miter" stroke-miterlimit="8" stroke-opacity="1" fill="none" fill-rule="evenodd"/><path d="M2057.96 1825.32 1779 1548" stroke="#7F7F7F" stroke-width="27.5" stroke-linecap="butt" stroke-linejoin="miter" stroke-miterlimit="8" stroke-opacity="1" fill="none" fill-rule="evenodd"/><path d="M2047.56 2002.34 1812 1761" stroke="#7F7F7F" stroke-width="27.5" stroke-linecap="butt" stroke-linejoin="miter" stroke-miterlimit="8" stroke-opacity="1" fill="none" fill-rule="evenodd"/><path d="M1877.48 1929.22 1751 1795" stroke="#7F7F7F" stroke-width="27.5" stroke-linecap="butt" stroke-linejoin="miter" stroke-miterlimit="8" stroke-opacity="1" fill="none" fill-rule="evenodd"/><path d="M1816.69 1970.17 1750 1894" stroke="#7F7F7F" stroke-width="27.5" stroke-linecap="butt" stroke-linejoin="miter" stroke-miterlimit="8" stroke-opacity="1" fill="none" fill-rule="evenodd"/><path d="M1753 1611 1753 1905.21" stroke="#7F7F7F" stroke-width="27.5" stroke-linecap="butt" stroke-linejoin="miter" stroke-miterlimit="8" stroke-opacity="1" fill="none" fill-rule="evenodd"/><path d="M1815 1673 1815 1771.03" stroke="#7F7F7F" stroke-width="27.5" stroke-linecap="butt" stroke-linejoin="miter" stroke-miterlimit="8" stroke-opacity="1" fill="none" fill-rule="evenodd"/><path d="M1813 1960 1813 2074.83" stroke="#7F7F7F" stroke-width="27.5" stroke-linecap="butt" stroke-linejoin="miter" stroke-miterlimit="8" stroke-opacity="1" fill="none" fill-rule="evenodd"/><path d="M1872 1919 1872 2229.67" stroke="#7F7F7F" stroke-width="27.5" stroke-linecap="butt" stroke-linejoin="miter" stroke-miterlimit="8" stroke-opacity="1" fill="none" fill-rule="evenodd"/><path d="M1938 1895 1938 2036.3" stroke="#7F7F7F" stroke-width="27.5" stroke-linecap="butt" stroke-linejoin="miter" stroke-miterlimit="8" stroke-opacity="1" fill="none" fill-rule="evenodd"/><path d="M2042 1992 2042 2093.49" stroke="#7F7F7F" stroke-width="27.5" stroke-linecap="butt" stroke-linejoin="miter" stroke-miterlimit="8" stroke-opacity="1" fill="none" fill-rule="evenodd"/><path d="M2126 1974 2126 2158.56" stroke="#7F7F7F" stroke-width="27.5" stroke-linecap="butt" stroke-linejoin="miter" stroke-miterlimit="8" stroke-opacity="1" fill="none" fill-rule="evenodd"/><path d="M0 0 189.686 0.000360892" stroke="#7F7F7F" stroke-width="27.5" stroke-linecap="butt" stroke-linejoin="miter" stroke-miterlimit="8" stroke-opacity="1" fill="none" fill-rule="evenodd" transform="matrix(-1 0 0 1 2103.69 1679)"/><path d="M0 0 252.384 0.000360892" stroke="#7F7F7F" stroke-width="27.5" stroke-linecap="butt" stroke-linejoin="miter" stroke-miterlimit="8" stroke-opacity="1" fill="none" fill-rule="evenodd" transform="matrix(-1 0 0 1 2237.38 1743)"/><path d="M0 0 313.996 0.000360892" stroke="#7F7F7F" stroke-width="27.5" stroke-linecap="butt" stroke-linejoin="miter" stroke-miterlimit="8" stroke-opacity="1" fill="none" fill-rule="evenodd" transform="matrix(-1 0 0 1 2361 1819)"/><path d="M2233 1884 2233 1945.9" stroke="#7F7F7F" stroke-width="27.5" stroke-linecap="butt" stroke-linejoin="miter" stroke-miterlimit="8" stroke-opacity="1" fill="none" fill-rule="evenodd"/><path d="M2235.69 1893.17 2169 1817" stroke="#7F7F7F" stroke-width="27.5" stroke-linecap="butt" stroke-linejoin="miter" stroke-miterlimit="8" stroke-opacity="1" fill="none" fill-rule="evenodd"/><path d="M2104.5 1680.5C2104.5 1666.14 2116.14 1654.5 2130.5 1654.5 2144.86 1654.5 2156.5 1666.14 2156.5 1680.5 2156.5 1694.86 2144.86 1706.5 2130.5 1706.5 2116.14 1706.5 2104.5 1694.86 2104.5 1680.5Z" stroke="#7F7F7F" stroke-width="20.625" stroke-linecap="butt" stroke-linejoin="miter" stroke-miterlimit="8" stroke-opacity="1" fill="#000000" fill-rule="evenodd" fill-opacity="1"/><path d="M2233.5 1739.5C2233.5 1725.14 2245.14 1713.5 2259.5 1713.5 2273.86 1713.5 2285.5 1725.14 2285.5 1739.5 2285.5 1753.86 2273.86 1765.5 2259.5 1765.5 2245.14 1765.5 2233.5 1753.86 2233.5 1739.5Z" stroke="#7F7F7F" stroke-width="20.625" stroke-linecap="butt" stroke-linejoin="miter" stroke-miterlimit="8" stroke-opacity="1" fill="#000000" fill-rule="evenodd" fill-opacity="1"/><path d="M2354.5 1821.5C2354.5 1807.14 2366.14 1795.5 2380.5 1795.5 2394.86 1795.5 2406.5 1807.14 2406.5 1821.5 2406.5 1835.86 2394.86 1847.5 2380.5 1847.5 2366.14 1847.5 2354.5 1835.86 2354.5 1821.5Z" stroke="#7F7F7F" stroke-width="20.625" stroke-linecap="butt" stroke-linejoin="miter" stroke-miterlimit="8" stroke-opacity="1" fill="#000000" fill-rule="evenodd" fill-opacity="1"/><path d="M2205.5 1965.5C2205.5 1951.14 2217.14 1939.5 2231.5 1939.5 2245.86 1939.5 2257.5 1951.14 2257.5 1965.5 2257.5 1979.86 2245.86 1991.5 2231.5 1991.5 2217.14 1991.5 2205.5 1979.86 2205.5 1965.5Z" stroke="#7F7F7F" stroke-width="20.625" stroke-linecap="butt" stroke-linejoin="miter" stroke-miterlimit="8" stroke-opacity="1" fill="#000000" fill-rule="evenodd" fill-opacity="1"/><path d="M2101.5 2182.5C2101.5 2168.14 2113.14 2156.5 2127.5 2156.5 2141.86 2156.5 2153.5 2168.14 2153.5 2182.5 2153.5 2196.86 2141.86 2208.5 2127.5 2208.5 2113.14 2208.5 2101.5 2196.86 2101.5 2182.5Z" stroke="#7F7F7F" stroke-width="20.625" stroke-linecap="butt" stroke-linejoin="miter" stroke-miterlimit="8" stroke-opacity="1" fill="#000000" fill-rule="evenodd" fill-opacity="1"/><path d="M2015.5 2124.5C2015.5 2110.14 2027.14 2098.5 2041.5 2098.5 2055.86 2098.5 2067.5 2110.14 2067.5 2124.5 2067.5 2138.86 2055.86 2150.5 2041.5 2150.5 2027.14 2150.5 2015.5 2138.86 2015.5 2124.5Z" stroke="#7F7F7F" stroke-width="20.625" stroke-linecap="butt" stroke-linejoin="miter" stroke-miterlimit="8" stroke-opacity="1" fill="#000000" fill-rule="evenodd" fill-opacity="1"/><path d="M1912.5 2060.5C1912.5 2046.14 1924.14 2034.5 1938.5 2034.5 1952.86 2034.5 1964.5 2046.14 1964.5 2060.5 1964.5 2074.86 1952.86 2086.5 1938.5 2086.5 1924.14 2086.5 1912.5 2074.86 1912.5 2060.5Z" stroke="#7F7F7F" stroke-width="20.625" stroke-linecap="butt" stroke-linejoin="miter" stroke-miterlimit="8" stroke-opacity="1" fill="#000000" fill-rule="evenodd" fill-opacity="1"/><path d="M1847.5 2259.5C1847.5 2245.14 1859.14 2233.5 1873.5 2233.5 1887.86 2233.5 1899.5 2245.14 1899.5 2259.5 1899.5 2273.86 1887.86 2285.5 1873.5 2285.5 1859.14 2285.5 1847.5 2273.86 1847.5 2259.5Z" stroke="#7F7F7F" stroke-width="20.625" stroke-linecap="butt" stroke-linejoin="miter" stroke-miterlimit="8" stroke-opacity="1" fill="#000000" fill-rule="evenodd" fill-opacity="1"/><path d="M1786.5 2098.5C1786.5 2084.14 1798.14 2072.5 1812.5 2072.5 1826.86 2072.5 1838.5 2084.14 1838.5 2098.5 1838.5 2112.86 1826.86 2124.5 1812.5 2124.5 1798.14 2124.5 1786.5 2112.86 1786.5 2098.5Z" stroke="#7F7F7F" stroke-width="20.625" stroke-linecap="butt" stroke-linejoin="miter" stroke-miterlimit="8" stroke-opacity="1" fill="#000000" fill-rule="evenodd" fill-opacity="1"/><path d="M1680.5 2150.5C1680.5 2136.14 1692.14 2124.5 1706.5 2124.5 1720.86 2124.5 1732.5 2136.14 1732.5 2150.5 1732.5 2164.86 1720.86 2176.5 1706.5 2176.5 1692.14 2176.5 1680.5 2164.86 1680.5 2150.5Z" stroke="#7F7F7F" stroke-width="20.625" stroke-linecap="butt" stroke-linejoin="miter" stroke-miterlimit="8" stroke-opacity="1" fill="#000000" fill-rule="evenodd" fill-opacity="1"/><path d="M1621.5 2349.5C1621.5 2335.14 1633.14 2323.5 1647.5 2323.5 1661.86 2323.5 1673.5 2335.14 1673.5 2349.5 1673.5 2363.86 1661.86 2375.5 1647.5 2375.5 1633.14 2375.5 1621.5 2363.86 1621.5 2349.5Z" stroke="#7F7F7F" stroke-width="20.625" stroke-linecap="butt" stroke-linejoin="miter" stroke-miterlimit="8" stroke-opacity="1" fill="#000000" fill-rule="evenodd" fill-opacity="1"/><path d="M1499.5 2085.5C1499.5 2071.14 1511.14 2059.5 1525.5 2059.5 1539.86 2059.5 1551.5 2071.14 1551.5 2085.5 1551.5 2099.86 1539.86 2111.5 1525.5 2111.5 1511.14 2111.5 1499.5 2099.86 1499.5 2085.5Z" stroke="#7F7F7F" stroke-width="20.625" stroke-linecap="butt" stroke-linejoin="miter" stroke-miterlimit="8" stroke-opacity="1" fill="#000000" fill-rule="evenodd" fill-opacity="1"/><path d="M1466.5 1991.5C1466.5 1977.14 1477.92 1965.5 1492 1965.5 1506.08 1965.5 1517.5 1977.14 1517.5 1991.5 1517.5 2005.86 1506.08 2017.5 1492 2017.5 1477.92 2017.5 1466.5 2005.86 1466.5 1991.5Z" stroke="#7F7F7F" stroke-width="20.625" stroke-linecap="butt" stroke-linejoin="miter" stroke-miterlimit="8" stroke-opacity="1" fill="#000000" fill-rule="evenodd" fill-opacity="1"/><path d="M1410.5 2098.5C1410.5 2084.14 1422.14 2072.5 1436.5 2072.5 1450.86 2072.5 1462.5 2084.14 1462.5 2098.5 1462.5 2112.86 1450.86 2124.5 1436.5 2124.5 1422.14 2124.5 1410.5 2112.86 1410.5 2098.5Z" stroke="#7F7F7F" stroke-width="20.625" stroke-linecap="butt" stroke-linejoin="miter" stroke-miterlimit="8" stroke-opacity="1" fill="#000000" fill-rule="evenodd" fill-opacity="1"/><path d="M1351.5 2270.5C1351.5 2256.14 1363.14 2244.5 1377.5 2244.5 1391.86 2244.5 1403.5 2256.14 1403.5 2270.5 1403.5 2284.86 1391.86 2296.5 1377.5 2296.5 1363.14 2296.5 1351.5 2284.86 1351.5 2270.5Z" stroke="#7F7F7F" stroke-width="20.625" stroke-linecap="butt" stroke-linejoin="miter" stroke-miterlimit="8" stroke-opacity="1" fill="#000000" fill-rule="evenodd" fill-opacity="1"/><path d="M1280.5 2057.5C1280.5 2043.14 1292.14 2031.5 1306.5 2031.5 1320.86 2031.5 1332.5 2043.14 1332.5 2057.5 1332.5 2071.86 1320.86 2083.5 1306.5 2083.5 1292.14 2083.5 1280.5 2071.86 1280.5 2057.5Z" stroke="#7F7F7F" stroke-width="20.625" stroke-linecap="butt" stroke-linejoin="miter" stroke-miterlimit="8" stroke-opacity="1" fill="#000000" fill-rule="evenodd" fill-opacity="1"/><path d="M1171.5 2111.5C1171.5 2097.14 1183.14 2085.5 1197.5 2085.5 1211.86 2085.5 1223.5 2097.14 1223.5 2111.5 1223.5 2125.86 1211.86 2137.5 1197.5 2137.5 1183.14 2137.5 1171.5 2125.86 1171.5 2111.5Z" stroke="#7F7F7F" stroke-width="20.625" stroke-linecap="butt" stroke-linejoin="miter" stroke-miterlimit="8" stroke-opacity="1" fill="#000000" fill-rule="evenodd" fill-opacity="1"/><path d="M1093.5 2185.5C1093.5 2171.14 1105.14 2159.5 1119.5 2159.5 1133.86 2159.5 1145.5 2171.14 1145.5 2185.5 1145.5 2199.86 1133.86 2211.5 1119.5 2211.5 1105.14 2211.5 1093.5 2199.86 1093.5 2185.5Z" stroke="#7F7F7F" stroke-width="20.625" stroke-linecap="butt" stroke-linejoin="miter" stroke-miterlimit="8" stroke-opacity="1" fill="#000000" fill-rule="evenodd" fill-opacity="1"/><path d="M988.5 1965.5C988.5 1951.14 1000.14 1939.5 1014.5 1939.5 1028.86 1939.5 1040.5 1951.14 1040.5 1965.5 1040.5 1979.86 1028.86 1991.5 1014.5 1991.5 1000.14 1991.5 988.5 1979.86 988.5 1965.5Z" stroke="#7F7F7F" stroke-width="20.625" stroke-linecap="butt" stroke-linejoin="miter" stroke-miterlimit="8" stroke-opacity="1" fill="#000000" fill-rule="evenodd" fill-opacity="1"/><path d="M854.5 1821.5C854.5 1807.14 866.141 1795.5 880.5 1795.5 894.859 1795.5 906.5 1807.14 906.5 1821.5 906.5 1835.86 894.859 1847.5 880.5 1847.5 866.141 1847.5 854.5 1835.86 854.5 1821.5Z" stroke="#7F7F7F" stroke-width="20.625" stroke-linecap="butt" stroke-linejoin="miter" stroke-miterlimit="8" stroke-opacity="1" fill="#000000" fill-rule="evenodd" fill-opacity="1"/><path d="M972.5 1745.5C972.5 1731.14 983.917 1719.5 998 1719.5 1012.08 1719.5 1023.5 1731.14 1023.5 1745.5 1023.5 1759.86 1012.08 1771.5 998 1771.5 983.917 1771.5 972.5 1759.86 972.5 1745.5Z" stroke="#7F7F7F" stroke-width="20.625" stroke-linecap="butt" stroke-linejoin="miter" stroke-miterlimit="8" stroke-opacity="1" fill="#000000" fill-rule="evenodd" fill-opacity="1"/><path d="M1104.5 1666.5C1104.5 1652.14 1116.14 1640.5 1130.5 1640.5 1144.86 1640.5 1156.5 1652.14 1156.5 1666.5 1156.5 1680.86 1144.86 1692.5 1130.5 1692.5 1116.14 1692.5 1104.5 1680.86 1104.5 1666.5Z" stroke="#7F7F7F" stroke-width="20.625" stroke-linecap="butt" stroke-linejoin="miter" stroke-miterlimit="8" stroke-opacity="1" fill="#000000" fill-rule="evenodd" fill-opacity="1"/><g clip-path="url(#clip2)"><g clip-path="url(#clip3)"><g><path d="M185.622 296.257 192.166 296.257C192.166 296.257 183.319 135.284 228.37 64.9858 228.369 64.9858 186.617 105.679 185.622 296.257Z" fill="#040000" fill-rule="nonzero" fill-opacity="1" transform="matrix(1.69256 0 0 1 10.3537 1233)"/><path d="M300.949 296.257C300.949 296.257 292.891 165.649 265.943 119.819 238.993 73.9916 190.706 107.48 183.298 156.547 189.043 135.287 213.107 82.6157 247.961 105.897 289.649 133.748 293.594 289.712 292.77 296.256L300.949 296.256Z" fill="#040000" fill-rule="nonzero" fill-opacity="1" transform="matrix(1.69256 0 0 1 10.3537 1233)"/><path d="M227.337 296.257 233.879 296.257C233.879 296.257 227.44 184.402 300.275 141.12 300.275 141.12 230.728 168.662 227.337 296.257Z" fill="#040000" fill-rule="nonzero" fill-opacity="1" transform="matrix(1.69256 0 0 1 10.3537 1233)"/><path d="M254.328 296.257 260.054 296.257C260.054 296.257 295.333 180.375 264.326 98.5516 264.326 98.5516 291.258 163.787 254.328 296.257Z" fill="#040000" fill-rule="nonzero" fill-opacity="1" transform="matrix(1.69256 0 0 1 10.3537 1233)"/><path d="M210.128 296.257 215.395 296.257C215.395 296.257 229.072 189.309 162.9 103.365 162.9 103.365 218.445 181.755 210.128 296.257Z" fill="#040000" fill-rule="nonzero" fill-opacity="1" transform="matrix(1.69256 0 0 1 10.3537 1233)"/><path d="M381.553 296.257 386.127 296.257C386.127 296.257 397.997 203.508 340.563 128.913 340.563 128.913 388.773 196.875 381.553 296.257Z" fill="#040000" fill-rule="nonzero" fill-opacity="1" transform="matrix(1.69256 0 0 1 10.3537 1233)"/><path d="M170.899 296.257 166.81 296.257C166.81 296.257 166.903 196.612 157.944 154.889 157.944 154.89 170.986 202.196 170.899 296.257Z" fill="#040000" fill-rule="nonzero" fill-opacity="1" transform="matrix(1.69256 0 0 1 10.3537 1233)"/><path d="M786.325 296.257 782.236 296.257C782.236 296.257 782.327 196.612 773.37 154.889 773.37 154.89 786.414 202.196 786.325 296.257Z" fill="#040000" fill-rule="nonzero" fill-opacity="1" transform="matrix(1.69256 0 0 1 10.3537 1233)"/><path d="M242.059 296.257 248.602 296.257C248.602 296.257 244.599 201.593 314.963 179.574 314.963 179.574 250.343 182.573 242.059 296.257Z" fill="#040000" fill-rule="nonzero" fill-opacity="1" transform="matrix(1.69256 0 0 1 10.3537 1233)"/><path d="M276.542 296.257C276.542 296.257 287.145 188.547 198.9 91.1302 198.9 91.1302 274.077 167.845 271.504 296.257L276.542 296.257Z" fill="#040000" fill-rule="nonzero" fill-opacity="1" transform="matrix(1.69256 0 0 1 10.3537 1233)"/><path d="M217.52 296.257 224.064 296.257C224.064 296.257 220.026 240.01 234.789 196.675 234.79 196.675 218.733 225.099 217.52 296.257Z" fill="#040000" fill-rule="nonzero" fill-opacity="1" transform="matrix(1.69256 0 0 1 10.3537 1233)"/><path d="M206.07 296.257C206.07 296.257 206.155 204.012 137.459 194.949 137.459 194.949 197.159 204.648 198.709 296.257L206.07 296.257Z" fill="#040000" fill-rule="nonzero" fill-opacity="1" transform="matrix(1.69256 0 0 1 10.3537 1233)"/><path d="M281.319 296.257 289.498 296.257C289.498 296.257 277.344 172.178 343.647 119.074 343.647 119.074 314.183 138.677 301.886 168.111 289.322 198.186 281.362 249.634 281.319 296.257Z" fill="#040000" fill-rule="nonzero" fill-opacity="1" transform="matrix(1.69256 0 0 1 10.3537 1233)"/><path d="M264.961 296.257 272.323 296.257C272.323 296.257 272.427 184.444 207.035 139.395 207.034 139.395 271.598 196.475 264.961 296.257Z" fill="#040000" fill-rule="nonzero" fill-opacity="1" transform="matrix(1.69256 0 0 1 10.3537 1233)"/><path d="M313.02 296.257 323.174 296.257C323.174 296.257 314.148 174.893 378.176 110.985 378.176 110.985 320.267 147.007 313.02 296.257Z" fill="#040000" fill-rule="nonzero" fill-opacity="1" transform="matrix(1.69256 0 0 1 10.3537 1233)"/><path d="M349.573 296.257 357.696 296.257C357.696 296.257 358.813 186.102 342.608 143.444 342.608 143.444 354.719 223.157 349.573 296.257Z" fill="#040000" fill-rule="nonzero" fill-opacity="1" transform="matrix(1.69256 0 0 1 10.3537 1233)"/><path d="M331.297 296.257 340.435 296.257C338.419 282.04 363.93 143.462 419.71 212.559 419.71 212.559 403.498 175.99 374.034 196.27 344.57 216.55 331.309 283.056 331.297 296.257Z" fill="#040000" fill-rule="nonzero" fill-opacity="1" transform="matrix(1.69256 0 0 1 10.3537 1233)"/><path d="M366.834 296.257 374.957 296.257C374.957 296.257 367.902 238.91 388.291 151.609 388.291 151.609 367.931 209.953 366.834 296.257Z" fill="#040000" fill-rule="nonzero" fill-opacity="1" transform="matrix(1.69256 0 0 1 10.3537 1233)"/><path d="M321.143 296.257 308.959 296.257C308.959 296.257 322.235 213.484 275.645 88.5526 275.645 88.5526 311.135 140.901 321.143 296.257Z" fill="#040000" fill-rule="nonzero" fill-opacity="1" transform="matrix(1.69256 0 0 1 10.3537 1233)"/><path d="M401.358 296.257 410.494 296.257C410.494 296.257 404.492 201.375 450.262 115.114 450.262 115.114 409.609 158.178 401.358 296.257Z" fill="#040000" fill-rule="nonzero" fill-opacity="1" transform="matrix(1.69256 0 0 1 10.3537 1233)"/><path d="M436.893 296.257 446.032 296.257C446.032 296.257 443.127 145.062 350.755 117.561 390.33 142.98 430.92 169.332 436.893 296.257Z" fill="#040000" fill-rule="nonzero" fill-opacity="1" transform="matrix(1.69256 0 0 1 10.3537 1233)"/><path d="M418.942 296.257 423.491 296.257C423.491 296.257 423.57 212.644 443.097 175.623 443.097 175.623 419.023 209.83 418.942 296.257Z" fill="#040000" fill-rule="nonzero" fill-opacity="1" transform="matrix(1.69256 0 0 1 10.3537 1233)"/><path d="M448.835 296.257 456.633 296.257C456.633 296.257 450.847 226.965 478.854 159.41 478.854 159.41 454.125 196.838 448.835 296.257Z" fill="#040000" fill-rule="nonzero" fill-opacity="1" transform="matrix(1.69256 0 0 1 10.3537 1233)"/><path d="M426.091 296.257 432.588 296.257C432.588 296.257 481.418 198.402 467.187 125.606 467.187 125.606 470.349 157.001 463.226 193.186 450.82 256.206 425.443 292.358 426.091 296.257Z" fill="#040000" fill-rule="nonzero" fill-opacity="1" transform="matrix(1.69256 0 0 1 10.3537 1233)"/><path d="M390.351 296.257 396.849 296.257C396.849 296.257 409.273 213.278 374.882 158.662 374.882 158.662 390.474 197.132 393.665 225.614 398.175 265.905 390.351 296.257 390.351 296.257Z" fill="#040000" fill-rule="nonzero" fill-opacity="1" transform="matrix(1.69256 0 0 1 10.3537 1233)"/><path d="M340.435 296.257 347.461 296.257C347.461 296.257 354.665 235.306 322.869 187.838 322.869 187.838 349.058 239.096 340.435 296.257Z" fill="#040000" fill-rule="nonzero" fill-opacity="1" transform="matrix(1.69256 0 0 1 10.3537 1233)"/><path d="M463.13 296.257 470.928 296.257C470.928 296.257 493.796 162.022 411.97 107.362 425.605 120.369 488.58 182.562 463.13 296.257Z" fill="#040000" fill-rule="nonzero" fill-opacity="1" transform="matrix(1.69256 0 0 1 10.3537 1233)"/><path d="M480.121 296.257 489.297 296.257C489.297 296.257 454.029 162.802 524.248 66.5224 524.248 66.5224 483.654 110.181 478.259 187.074 472.279 272.272 480.121 296.257 480.121 296.257Z" fill="#040000" fill-rule="nonzero" fill-opacity="1" transform="matrix(1.69256 0 0 1 10.3537 1233)"/><path d="M498.472 296.257 505.681 296.257C505.681 296.257 507.731 210.698 491.389 161.527 491.391 161.527 505.751 220.237 498.472 296.257Z" fill="#040000" fill-rule="nonzero" fill-opacity="1" transform="matrix(1.69256 0 0 1 10.3537 1233)"/><path d="M518.134 296.257 527.312 296.257C527.312 296.257 527.523 69.1479 409.476 147.033 438.327 132.64 470.532 127.628 486.811 149.724 507.104 177.27 522.785 228.755 518.134 296.257Z" fill="#040000" fill-rule="nonzero" fill-opacity="1" transform="matrix(1.69256 0 0 1 10.3537 1233)"/><path d="M411.553 29.7153C411.553 29.7153 388.514 136.989 392.954 296.256 394.92 296.258 396.85 296.256 396.85 296.256 396.85 296.256 393.769 124.732 411.553 29.7153Z" fill="#040000" fill-rule="nonzero" fill-opacity="1" transform="matrix(1.69256 0 0 1 10.3537 1233)"/><path d="M538.779 296.257 549.594 296.257C549.594 296.257 560.636 51.1564 489.834 72.7187 500.647 72.7262 554.728 62.2922 538.779 296.257Z" fill="#040000" fill-rule="nonzero" fill-opacity="1" transform="matrix(1.69256 0 0 1 10.3537 1233)"/><path d="M505.681 296.257 514.201 296.257C514.201 296.257 506.442 182.511 564.49 136.361 564.49 136.361 514.01 153.059 505.681 296.257Z" fill="#040000" fill-rule="nonzero" fill-opacity="1" transform="matrix(1.69256 0 0 1 10.3537 1233)"/><path d="M155.368 296.257 146.52 296.257C146.52 296.257 143.701 155.959 178.163 98.9706 178.163 98.9706 142.695 181.222 155.368 296.257Z" fill="#040000" fill-rule="nonzero" fill-opacity="1" transform="matrix(1.69256 0 0 1 10.3537 1233)"/><path d="M690.18 294.29 681.332 294.29C681.332 294.29 678.513 153.991 712.974 97.0044 712.974 97.0044 677.508 179.255 690.18 294.29Z" fill="#040000" fill-rule="nonzero" fill-opacity="1" transform="matrix(1.69256 0 0 1 10.3537 1233)"/><path d="M179.945 296.257 175.03 296.257C175.03 296.257 177.068 219.892 176.114 187.449 176.114 187.449 180.988 233.338 179.945 296.257Z" fill="#040000" fill-rule="nonzero" fill-opacity="1" transform="matrix(1.69256 0 0 1 10.3537 1233)"/><path d="M146.52 296.257 136.689 296.257C136.689 296.257 106.294 208.03 121.154 87.1202 121.154 87.1202 110.231 203.81 146.52 296.257Z" fill="#040000" fill-rule="nonzero" fill-opacity="1" transform="matrix(1.69256 0 0 1 10.3537 1233)"/><path d="M118.993 296.257C118.993 296.257 122.969 249.335 137.754 208.057 137.754 208.057 120.031 237.278 113.096 296.257L118.993 296.257Z" fill="#040000" fill-rule="nonzero" fill-opacity="1" transform="matrix(1.69256 0 0 1 10.3537 1233)"/><path d="M130.79 296.257 124.892 296.257C124.892 296.257 114.17 198.205 139.803 119.581 139.803 119.581 117.101 215.628 130.79 296.257Z" fill="#040000" fill-rule="nonzero" fill-opacity="1" transform="matrix(1.69256 0 0 1 10.3537 1233)"/><path d="M559.425 296.257 569.256 296.257C569.256 296.257 546.731 203.524 591.041 130.814 591.04 130.814 545.773 177.289 559.425 296.257Z" fill="#040000" fill-rule="nonzero" fill-opacity="1" transform="matrix(1.69256 0 0 1 10.3537 1233)"/><path d="M324.416 296.257 331.297 296.257C331.297 296.257 354.101 89.3055 307.949 32.2409 307.949 32.2409 321.741 52.2155 325.641 85.6453 328.883 113.418 338.307 159.618 324.416 296.257Z" fill="#040000" fill-rule="nonzero" fill-opacity="1" transform="matrix(1.69256 0 0 1 10.3537 1233)"/><path d="M549.594 296.257 559.425 296.257C559.425 296.257 525.147 156.316 642.134 158.39 642.134 158.39 585.122 150.473 563.453 193.709 541.784 236.946 549.594 296.257 549.594 296.257Z" fill="#040000" fill-rule="nonzero" fill-opacity="1" transform="matrix(1.69256 0 0 1 10.3537 1233)"/><path d="M580.07 296.257 588.918 296.257C588.918 296.257 607.658 230.126 611.648 170.16 615.637 110.193 581.254 79.685 581.254 79.685 581.254 79.685 607.773 108.218 607.733 151.476 607.701 184.903 605.713 207.802 580.07 296.257Z" fill="#040000" fill-rule="nonzero" fill-opacity="1" transform="matrix(1.69256 0 0 1 10.3537 1233)"/><path d="M611.53 296.257 605.631 296.257C605.631 296.257 579.137 243.863 579.182 195.69 579.181 195.69 578.161 235.271 611.53 296.257Z" fill="#040000" fill-rule="nonzero" fill-opacity="1" transform="matrix(1.69256 0 0 1 10.3537 1233)"/><path d="M624.31 296.257 632.175 296.257C632.175 296.257 629.306 209.5 654.949 122.028 654.949 122.028 627.36 189.1 624.31 296.257Z" fill="#040000" fill-rule="nonzero" fill-opacity="1" transform="matrix(1.69256 0 0 1 10.3537 1233)"/><path d="M529.931 296.257 538.779 296.257C538.779 296.257 534.632 175.657 515.009 131.071 515.009 131.071 537.207 226.79 529.931 296.257Z" fill="#040000" fill-rule="nonzero" fill-opacity="1" transform="matrix(1.69256 0 0 1 10.3537 1233)"/><path d="M573.191 296.257 580.072 296.257C580.072 296.257 578.542 177.009 556.306 125.868 556.306 125.868 577.213 199.259 573.191 296.257Z" fill="#040000" fill-rule="nonzero" fill-opacity="1" transform="matrix(1.69256 0 0 1 10.3537 1233)"/><path d="M109.285 296.257 104.698 296.257C104.698 296.257 107.319 219.429 88.9684 155.2 88.9673 155.2 107.319 192.048 109.285 296.257Z" fill="#040000" fill-rule="nonzero" fill-opacity="1" transform="matrix(1.69256 0 0 1 10.3537 1233)"/><path d="M141.401 143.403C131.57 157.167 105.354 204.502 102.077 296.257 98.1443 296.257 98.1443 296.257 98.1443 296.257L98.1443 296.257C98.1443 296.257 101.422 238.436 109.942 206.322 118.461 174.207 141.401 143.403 141.401 143.403Z" fill="#040000" fill-rule="nonzero" fill-opacity="1" transform="matrix(1.69256 0 0 1 10.3537 1233)"/><path d="M242.059 296.257 233.879 296.257C233.879 296.257 245.61 237.781 203.008 151.268 229.881 187.971 243.752 261.061 242.059 296.257Z" fill="#040000" fill-rule="nonzero" fill-opacity="1" transform="matrix(1.69256 0 0 1 10.3537 1233)"/><path d="M489.297 296.257 498.472 296.257C498.472 296.257 480.9 256.132 508.427 208.288 508.428 208.288 484.585 229.175 489.297 296.257Z" fill="#040000" fill-rule="nonzero" fill-opacity="1" transform="matrix(1.69256 0 0 1 10.3537 1233)"/><path d="M456.633 296.257 463.13 296.257C463.13 296.257 465.828 236.47 445.509 197.145 461.238 246.958 459.234 276.99 456.633 296.257Z" fill="#040000" fill-rule="nonzero" fill-opacity="1" transform="matrix(1.69256 0 0 1 10.3537 1233)"/><path d="M646.063 296.257 635.25 296.257C635.25 296.257 649.997 204.356 566.432 131.605 639.181 196.491 633.283 230.388 646.063 296.257Z" fill="#040000" fill-rule="nonzero" fill-opacity="1" transform="matrix(1.69256 0 0 1 10.3537 1233)"/><path d="M624.31 296.257 614.604 296.257C614.604 296.257 595.925 242.696 596.908 183.711 596.908 183.711 601.573 248.31 624.31 296.257Z" fill="#040000" fill-rule="nonzero" fill-opacity="1" transform="matrix(1.69256 0 0 1 10.3537 1233)"/><path d="M654.911 296.257 663.758 296.257C663.758 296.257 670.963 261.251 678.505 223.035 693.252 148.318 642.13 106.045 642.13 106.045 642.13 106.045 686.37 154.218 671.623 220.086 666.431 243.288 660.81 277.577 654.911 296.257Z" fill="#040000" fill-rule="nonzero" fill-opacity="1" transform="matrix(1.69256 0 0 1 10.3537 1233)"/><path d="M675.557 296.257 683.421 296.257C683.421 296.257 656.877 226.967 657.861 171.913 657.861 171.913 655.895 244.153 675.557 296.257Z" fill="#040000" fill-rule="nonzero" fill-opacity="1" transform="matrix(1.69256 0 0 1 10.3537 1233)"/><path d="M658.843 295.165C658.843 295.165 625.418 119.698 678.505 51.8636 678.505 51.8636 619.518 109.357 652.945 295.165 655.402 297.622 658.843 295.165 658.843 295.165Z" fill="#040000" fill-rule="nonzero" fill-opacity="1" transform="matrix(1.69256 0 0 1 10.3537 1233)"/><path d="M92.5732 296.257 84.7084 296.257C84.7084 296.257 80.776 183.199 2.12784 139.942 2.12678 139.942 80.7749 176.317 92.5732 296.257Z" fill="#040000" fill-rule="nonzero" fill-opacity="1" transform="matrix(1.69256 0 0 1 10.3537 1233)"/><path d="M73.8938 296.257 67.9952 296.257C67.9952 296.257 65.0464 255.949 85.691 223.506 85.691 223.507 71.9276 253 73.8938 296.257Z" fill="#040000" fill-rule="nonzero" fill-opacity="1" transform="matrix(1.69256 0 0 1 10.3537 1233)"/><path d="M54.4614 296.257 49.2604 296.257C49.2604 296.257 45.3577 176.601 83.7248 123.278 83.7248 123.278 47.308 177.902 54.4614 296.257Z" fill="#040000" fill-rule="nonzero" fill-opacity="1" transform="matrix(1.69256 0 0 1 10.3537 1233)"/><path d="M42.4345 291.342 41.4509 296.257C41.4509 296.257 39.4847 219.574 21.7888 165.504 21.7888 165.504 40.4683 185.166 42.4345 291.342Z" fill="#040000" fill-rule="nonzero" fill-opacity="1" transform="matrix(1.69256 0 0 1 10.3537 1233)"/><path d="M59.1467 296.257 67.9952 296.257C67.9952 296.257 60.1303 201.878 107.319 149.774 107.319 149.774 62.0965 190.082 59.1467 296.257Z" fill="#040000" fill-rule="nonzero" fill-opacity="1" transform="matrix(1.69256 0 0 1 10.3537 1233)"/><path d="M155.368 296.257 166.81 296.257C166.81 296.257 169.256 202.28 96.5056 134.445 96.5056 134.445 163.109 207.376 155.368 296.257Z" fill="#040000" fill-rule="nonzero" fill-opacity="1" transform="matrix(1.69256 0 0 1 10.3537 1233)"/><path d="M591.992 296.257 600.84 296.257C600.84 296.257 596.908 181.233 574.297 107.5 574.297 107.5 592.975 187.132 591.992 296.257Z" fill="#040000" fill-rule="nonzero" fill-opacity="1" transform="matrix(1.69256 0 0 1 10.3537 1233)"/><path d="M689.32 296.257 697.185 296.257C697.185 296.257 697.185 222.524 713.897 187.132 713.897 187.132 693.252 227.44 689.32 296.257Z" fill="#040000" fill-rule="nonzero" fill-opacity="1" transform="matrix(1.69256 0 0 1 10.3537 1233)"/><path d="M707.016 296.257 713.897 296.257C713.897 296.257 716.846 202.861 693.252 167.47 693.252 167.47 710.948 197.945 707.016 296.257Z" fill="#040000" fill-rule="nonzero" fill-opacity="1" transform="matrix(1.69256 0 0 1 10.3537 1233)"/><path d="M733.56 296.257 726.679 296.257C726.679 296.257 723.73 219.574 708.983 132.078 708.982 132.078 728.644 209.744 733.56 296.257Z" fill="#040000" fill-rule="nonzero" fill-opacity="1" transform="matrix(1.69256 0 0 1 10.3537 1233)"/><path d="M754.205 296.257 747.324 296.257C747.324 296.257 738.475 175.335 785.665 146.825 785.664 146.825 744.374 179.267 754.205 296.257Z" fill="#040000" fill-rule="nonzero" fill-opacity="1" transform="matrix(1.69256 0 0 1 10.3537 1233)"/><path d="M199.732 296.257 192.851 296.257C192.851 296.257 184.003 175.335 231.192 146.825 231.191 146.825 189.901 179.267 199.732 296.257Z" fill="#040000" fill-rule="nonzero" fill-opacity="1" transform="matrix(1.69256 0 0 1 10.3537 1233)"/><path d="M763.053 296.257 771.901 296.257C771.901 296.257 776.817 212.692 750.272 163.537 750.272 163.537 771.901 208.76 763.053 296.257Z" fill="#040000" fill-rule="nonzero" fill-opacity="1" transform="matrix(1.69256 0 0 1 10.3537 1233)"/><path d="M737.493 296.257 747.324 296.257C747.324 296.257 737.493 152.723 769.935 89.8042 769.935 89.8042 737.493 131.094 737.493 296.257Z" fill="#040000" fill-rule="nonzero" fill-opacity="1" transform="matrix(1.69256 0 0 1 10.3537 1233)"/><path d="M784.681 296.257 790.178 296.257C790.178 296.257 800.483 154.023 848.583 202.81 836.215 184.946 821.098 182.883 807.355 204.87 796.77 221.808 788.117 264.65 784.681 296.257Z" fill="#040000" fill-rule="nonzero" fill-opacity="1" transform="matrix(1.69256 0 0 1 10.3537 1233)"/><path d="M242.988 0.742245C242.988 0.742245 298.613 80.5548 300.949 296.257 298.042 296.257 292.77 296.257 292.77 296.257 292.77 296.257 292.799 96.4301 242.988 0.742245Z" fill="#040000" fill-rule="nonzero" fill-opacity="1" transform="matrix(1.69256 0 0 1 10.3537 1233)"/><path d="M726.678 296.257 713.897 296.257C713.897 296.257 701.773 185.166 745.03 65.8822 745.031 65.8822 710.948 168.781 726.678 296.257Z" fill="#040000" fill-rule="nonzero" fill-opacity="1" transform="matrix(1.69256 0 0 1 10.3537 1233)"/><path d="M470.928 296.257 480.121 296.257C480.121 296.257 477.625 150.175 446.165 96.4323 446.166 96.4323 478.934 180.323 470.928 296.257Z" fill="#040000" fill-rule="nonzero" fill-opacity="1" transform="matrix(1.69256 0 0 1 10.3537 1233)"/><path d="M418.942 296.257 410.493 296.257C410.493 296.257 409.464 268.146 402.908 215.715 402.908 215.715 414.004 239.164 418.942 296.257Z" fill="#040000" fill-rule="nonzero" fill-opacity="1" transform="matrix(1.69256 0 0 1 10.3537 1233)"/><path d="M799.429 295.929 808.604 295.929C808.604 295.929 812.538 233.009 790.254 200.239 790.254 200.239 807.292 230.388 799.429 295.929Z" fill="#040000" fill-rule="nonzero" fill-opacity="1" transform="matrix(1.69256 0 0 1 10.3537 1233)"/></g></g></g><g clip-path="url(#clip4)"><g clip-path="url(#clip5)"><g><path d="M185.622 296.257 192.166 296.257C192.166 296.257 183.319 135.284 228.37 64.9858 228.369 64.9858 186.617 105.679 185.622 296.257Z" fill="#040000" fill-rule="nonzero" fill-opacity="1" transform="matrix(1.69179 0 0 1 2203.78 1234)"/><path d="M300.949 296.257C300.949 296.257 292.891 165.649 265.943 119.819 238.993 73.9916 190.706 107.48 183.298 156.547 189.043 135.287 213.107 82.6157 247.961 105.897 289.649 133.748 293.594 289.712 292.77 296.256L300.949 296.256Z" fill="#040000" fill-rule="nonzero" fill-opacity="1" transform="matrix(1.69179 0 0 1 2203.78 1234)"/><path d="M227.337 296.257 233.879 296.257C233.879 296.257 227.44 184.402 300.275 141.12 300.275 141.12 230.728 168.662 227.337 296.257Z" fill="#040000" fill-rule="nonzero" fill-opacity="1" transform="matrix(1.69179 0 0 1 2203.78 1234)"/><path d="M254.328 296.257 260.054 296.257C260.054 296.257 295.333 180.375 264.326 98.5516 264.326 98.5516 291.258 163.787 254.328 296.257Z" fill="#040000" fill-rule="nonzero" fill-opacity="1" transform="matrix(1.69179 0 0 1 2203.78 1234)"/><path d="M210.128 296.257 215.395 296.257C215.395 296.257 229.072 189.309 162.9 103.365 162.9 103.365 218.445 181.755 210.128 296.257Z" fill="#040000" fill-rule="nonzero" fill-opacity="1" transform="matrix(1.69179 0 0 1 2203.78 1234)"/><path d="M381.553 296.257 386.127 296.257C386.127 296.257 397.997 203.508 340.563 128.913 340.563 128.913 388.773 196.875 381.553 296.257Z" fill="#040000" fill-rule="nonzero" fill-opacity="1" transform="matrix(1.69179 0 0 1 2203.78 1234)"/><path d="M170.899 296.257 166.81 296.257C166.81 296.257 166.903 196.612 157.944 154.889 157.944 154.89 170.986 202.196 170.899 296.257Z" fill="#040000" fill-rule="nonzero" fill-opacity="1" transform="matrix(1.69179 0 0 1 2203.78 1234)"/><path d="M786.325 296.257 782.236 296.257C782.236 296.257 782.327 196.612 773.37 154.889 773.37 154.89 786.414 202.196 786.325 296.257Z" fill="#040000" fill-rule="nonzero" fill-opacity="1" transform="matrix(1.69179 0 0 1 2203.78 1234)"/><path d="M242.059 296.257 248.602 296.257C248.602 296.257 244.599 201.593 314.963 179.574 314.963 179.574 250.343 182.573 242.059 296.257Z" fill="#040000" fill-rule="nonzero" fill-opacity="1" transform="matrix(1.69179 0 0 1 2203.78 1234)"/><path d="M276.542 296.257C276.542 296.257 287.145 188.547 198.9 91.1302 198.9 91.1302 274.077 167.845 271.504 296.257L276.542 296.257Z" fill="#040000" fill-rule="nonzero" fill-opacity="1" transform="matrix(1.69179 0 0 1 2203.78 1234)"/><path d="M217.52 296.257 224.064 296.257C224.064 296.257 220.026 240.01 234.789 196.675 234.79 196.675 218.733 225.099 217.52 296.257Z" fill="#040000" fill-rule="nonzero" fill-opacity="1" transform="matrix(1.69179 0 0 1 2203.78 1234)"/><path d="M206.07 296.257C206.07 296.257 206.155 204.012 137.459 194.949 137.459 194.949 197.159 204.648 198.709 296.257L206.07 296.257Z" fill="#040000" fill-rule="nonzero" fill-opacity="1" transform="matrix(1.69179 0 0 1 2203.78 1234)"/><path d="M281.319 296.257 289.498 296.257C289.498 296.257 277.344 172.178 343.647 119.074 343.647 119.074 314.183 138.677 301.886 168.111 289.322 198.186 281.362 249.634 281.319 296.257Z" fill="#040000" fill-rule="nonzero" fill-opacity="1" transform="matrix(1.69179 0 0 1 2203.78 1234)"/><path d="M264.961 296.257 272.323 296.257C272.323 296.257 272.427 184.444 207.035 139.395 207.034 139.395 271.598 196.475 264.961 296.257Z" fill="#040000" fill-rule="nonzero" fill-opacity="1" transform="matrix(1.69179 0 0 1 2203.78 1234)"/><path d="M313.02 296.257 323.174 296.257C323.174 296.257 314.148 174.893 378.176 110.985 378.176 110.985 320.267 147.007 313.02 296.257Z" fill="#040000" fill-rule="nonzero" fill-opacity="1" transform="matrix(1.69179 0 0 1 2203.78 1234)"/><path d="M349.573 296.257 357.696 296.257C357.696 296.257 358.813 186.102 342.608 143.444 342.608 143.444 354.719 223.157 349.573 296.257Z" fill="#040000" fill-rule="nonzero" fill-opacity="1" transform="matrix(1.69179 0 0 1 2203.78 1234)"/><path d="M331.297 296.257 340.435 296.257C338.419 282.04 363.93 143.462 419.71 212.559 419.71 212.559 403.498 175.99 374.034 196.27 344.57 216.55 331.309 283.056 331.297 296.257Z" fill="#040000" fill-rule="nonzero" fill-opacity="1" transform="matrix(1.69179 0 0 1 2203.78 1234)"/><path d="M366.834 296.257 374.957 296.257C374.957 296.257 367.902 238.91 388.291 151.609 388.291 151.609 367.931 209.953 366.834 296.257Z" fill="#040000" fill-rule="nonzero" fill-opacity="1" transform="matrix(1.69179 0 0 1 2203.78 1234)"/><path d="M321.143 296.257 308.959 296.257C308.959 296.257 322.235 213.484 275.645 88.5526 275.645 88.5526 311.135 140.901 321.143 296.257Z" fill="#040000" fill-rule="nonzero" fill-opacity="1" transform="matrix(1.69179 0 0 1 2203.78 1234)"/><path d="M401.358 296.257 410.494 296.257C410.494 296.257 404.492 201.375 450.262 115.114 450.262 115.114 409.609 158.178 401.358 296.257Z" fill="#040000" fill-rule="nonzero" fill-opacity="1" transform="matrix(1.69179 0 0 1 2203.78 1234)"/><path d="M436.893 296.257 446.032 296.257C446.032 296.257 443.127 145.062 350.755 117.561 390.33 142.98 430.92 169.332 436.893 296.257Z" fill="#040000" fill-rule="nonzero" fill-opacity="1" transform="matrix(1.69179 0 0 1 2203.78 1234)"/><path d="M418.942 296.257 423.491 296.257C423.491 296.257 423.57 212.644 443.097 175.623 443.097 175.623 419.023 209.83 418.942 296.257Z" fill="#040000" fill-rule="nonzero" fill-opacity="1" transform="matrix(1.69179 0 0 1 2203.78 1234)"/><path d="M448.835 296.257 456.633 296.257C456.633 296.257 450.847 226.965 478.854 159.41 478.854 159.41 454.125 196.838 448.835 296.257Z" fill="#040000" fill-rule="nonzero" fill-opacity="1" transform="matrix(1.69179 0 0 1 2203.78 1234)"/><path d="M426.091 296.257 432.588 296.257C432.588 296.257 481.418 198.402 467.187 125.606 467.187 125.606 470.349 157.001 463.226 193.186 450.82 256.206 425.443 292.358 426.091 296.257Z" fill="#040000" fill-rule="nonzero" fill-opacity="1" transform="matrix(1.69179 0 0 1 2203.78 1234)"/><path d="M390.351 296.257 396.849 296.257C396.849 296.257 409.273 213.278 374.882 158.662 374.882 158.662 390.474 197.132 393.665 225.614 398.175 265.905 390.351 296.257 390.351 296.257Z" fill="#040000" fill-rule="nonzero" fill-opacity="1" transform="matrix(1.69179 0 0 1 2203.78 1234)"/><path d="M340.435 296.257 347.461 296.257C347.461 296.257 354.665 235.306 322.869 187.838 322.869 187.838 349.058 239.096 340.435 296.257Z" fill="#040000" fill-rule="nonzero" fill-opacity="1" transform="matrix(1.69179 0 0 1 2203.78 1234)"/><path d="M463.13 296.257 470.928 296.257C470.928 296.257 493.796 162.022 411.97 107.362 425.605 120.369 488.58 182.562 463.13 296.257Z" fill="#040000" fill-rule="nonzero" fill-opacity="1" transform="matrix(1.69179 0 0 1 2203.78 1234)"/><path d="M480.121 296.257 489.297 296.257C489.297 296.257 454.029 162.802 524.248 66.5224 524.248 66.5224 483.654 110.181 478.259 187.074 472.279 272.272 480.121 296.257 480.121 296.257Z" fill="#040000" fill-rule="nonzero" fill-opacity="1" transform="matrix(1.69179 0 0 1 2203.78 1234)"/><path d="M498.472 296.257 505.681 296.257C505.681 296.257 507.731 210.698 491.389 161.527 491.391 161.527 505.751 220.237 498.472 296.257Z" fill="#040000" fill-rule="nonzero" fill-opacity="1" transform="matrix(1.69179 0 0 1 2203.78 1234)"/><path d="M518.134 296.257 527.312 296.257C527.312 296.257 527.523 69.1479 409.476 147.033 438.327 132.64 470.532 127.628 486.811 149.724 507.104 177.27 522.785 228.755 518.134 296.257Z" fill="#040000" fill-rule="nonzero" fill-opacity="1" transform="matrix(1.69179 0 0 1 2203.78 1234)"/><path d="M411.553 29.7153C411.553 29.7153 388.514 136.989 392.954 296.256 394.92 296.258 396.85 296.256 396.85 296.256 396.85 296.256 393.769 124.732 411.553 29.7153Z" fill="#040000" fill-rule="nonzero" fill-opacity="1" transform="matrix(1.69179 0 0 1 2203.78 1234)"/><path d="M538.779 296.257 549.594 296.257C549.594 296.257 560.636 51.1564 489.834 72.7187 500.647 72.7262 554.728 62.2922 538.779 296.257Z" fill="#040000" fill-rule="nonzero" fill-opacity="1" transform="matrix(1.69179 0 0 1 2203.78 1234)"/><path d="M505.681 296.257 514.201 296.257C514.201 296.257 506.442 182.511 564.49 136.361 564.49 136.361 514.01 153.059 505.681 296.257Z" fill="#040000" fill-rule="nonzero" fill-opacity="1" transform="matrix(1.69179 0 0 1 2203.78 1234)"/><path d="M155.368 296.257 146.52 296.257C146.52 296.257 143.701 155.959 178.163 98.9706 178.163 98.9706 142.695 181.222 155.368 296.257Z" fill="#040000" fill-rule="nonzero" fill-opacity="1" transform="matrix(1.69179 0 0 1 2203.78 1234)"/><path d="M690.18 294.29 681.332 294.29C681.332 294.29 678.513 153.991 712.974 97.0044 712.974 97.0044 677.508 179.255 690.18 294.29Z" fill="#040000" fill-rule="nonzero" fill-opacity="1" transform="matrix(1.69179 0 0 1 2203.78 1234)"/><path d="M179.945 296.257 175.03 296.257C175.03 296.257 177.068 219.892 176.114 187.449 176.114 187.449 180.988 233.338 179.945 296.257Z" fill="#040000" fill-rule="nonzero" fill-opacity="1" transform="matrix(1.69179 0 0 1 2203.78 1234)"/><path d="M146.52 296.257 136.689 296.257C136.689 296.257 106.294 208.03 121.154 87.1202 121.154 87.1202 110.231 203.81 146.52 296.257Z" fill="#040000" fill-rule="nonzero" fill-opacity="1" transform="matrix(1.69179 0 0 1 2203.78 1234)"/><path d="M118.993 296.257C118.993 296.257 122.969 249.335 137.754 208.057 137.754 208.057 120.031 237.278 113.096 296.257L118.993 296.257Z" fill="#040000" fill-rule="nonzero" fill-opacity="1" transform="matrix(1.69179 0 0 1 2203.78 1234)"/><path d="M130.79 296.257 124.892 296.257C124.892 296.257 114.17 198.205 139.803 119.581 139.803 119.581 117.101 215.628 130.79 296.257Z" fill="#040000" fill-rule="nonzero" fill-opacity="1" transform="matrix(1.69179 0 0 1 2203.78 1234)"/><path d="M559.425 296.257 569.256 296.257C569.256 296.257 546.731 203.524 591.041 130.814 591.04 130.814 545.773 177.289 559.425 296.257Z" fill="#040000" fill-rule="nonzero" fill-opacity="1" transform="matrix(1.69179 0 0 1 2203.78 1234)"/><path d="M324.416 296.257 331.297 296.257C331.297 296.257 354.101 89.3055 307.949 32.2409 307.949 32.2409 321.741 52.2155 325.641 85.6453 328.883 113.418 338.307 159.618 324.416 296.257Z" fill="#040000" fill-rule="nonzero" fill-opacity="1" transform="matrix(1.69179 0 0 1 2203.78 1234)"/><path d="M549.594 296.257 559.425 296.257C559.425 296.257 525.147 156.316 642.134 158.39 642.134 158.39 585.122 150.473 563.453 193.709 541.784 236.946 549.594 296.257 549.594 296.257Z" fill="#040000" fill-rule="nonzero" fill-opacity="1" transform="matrix(1.69179 0 0 1 2203.78 1234)"/><path d="M580.07 296.257 588.918 296.257C588.918 296.257 607.658 230.126 611.648 170.16 615.637 110.193 581.254 79.685 581.254 79.685 581.254 79.685 607.773 108.218 607.733 151.476 607.701 184.903 605.713 207.802 580.07 296.257Z" fill="#040000" fill-rule="nonzero" fill-opacity="1" transform="matrix(1.69179 0 0 1 2203.78 1234)"/><path d="M611.53 296.257 605.631 296.257C605.631 296.257 579.137 243.863 579.182 195.69 579.181 195.69 578.161 235.271 611.53 296.257Z" fill="#040000" fill-rule="nonzero" fill-opacity="1" transform="matrix(1.69179 0 0 1 2203.78 1234)"/><path d="M624.31 296.257 632.175 296.257C632.175 296.257 629.306 209.5 654.949 122.028 654.949 122.028 627.36 189.1 624.31 296.257Z" fill="#040000" fill-rule="nonzero" fill-opacity="1" transform="matrix(1.69179 0 0 1 2203.78 1234)"/><path d="M529.931 296.257 538.779 296.257C538.779 296.257 534.632 175.657 515.009 131.071 515.009 131.071 537.207 226.79 529.931 296.257Z" fill="#040000" fill-rule="nonzero" fill-opacity="1" transform="matrix(1.69179 0 0 1 2203.78 1234)"/><path d="M573.191 296.257 580.072 296.257C580.072 296.257 578.542 177.009 556.306 125.868 556.306 125.868 577.213 199.259 573.191 296.257Z" fill="#040000" fill-rule="nonzero" fill-opacity="1" transform="matrix(1.69179 0 0 1 2203.78 1234)"/><path d="M109.285 296.257 104.698 296.257C104.698 296.257 107.319 219.429 88.9684 155.2 88.9673 155.2 107.319 192.048 109.285 296.257Z" fill="#040000" fill-rule="nonzero" fill-opacity="1" transform="matrix(1.69179 0 0 1 2203.78 1234)"/><path d="M141.401 143.403C131.57 157.167 105.354 204.502 102.077 296.257 98.1443 296.257 98.1443 296.257 98.1443 296.257L98.1443 296.257C98.1443 296.257 101.422 238.436 109.942 206.322 118.461 174.207 141.401 143.403 141.401 143.403Z" fill="#040000" fill-rule="nonzero" fill-opacity="1" transform="matrix(1.69179 0 0 1 2203.78 1234)"/><path d="M242.059 296.257 233.879 296.257C233.879 296.257 245.61 237.781 203.008 151.268 229.881 187.971 243.752 261.061 242.059 296.257Z" fill="#040000" fill-rule="nonzero" fill-opacity="1" transform="matrix(1.69179 0 0 1 2203.78 1234)"/><path d="M489.297 296.257 498.472 296.257C498.472 296.257 480.9 256.132 508.427 208.288 508.428 208.288 484.585 229.175 489.297 296.257Z" fill="#040000" fill-rule="nonzero" fill-opacity="1" transform="matrix(1.69179 0 0 1 2203.78 1234)"/><path d="M456.633 296.257 463.13 296.257C463.13 296.257 465.828 236.47 445.509 197.145 461.238 246.958 459.234 276.99 456.633 296.257Z" fill="#040000" fill-rule="nonzero" fill-opacity="1" transform="matrix(1.69179 0 0 1 2203.78 1234)"/><path d="M646.063 296.257 635.25 296.257C635.25 296.257 649.997 204.356 566.432 131.605 639.181 196.491 633.283 230.388 646.063 296.257Z" fill="#040000" fill-rule="nonzero" fill-opacity="1" transform="matrix(1.69179 0 0 1 2203.78 1234)"/><path d="M624.31 296.257 614.604 296.257C614.604 296.257 595.925 242.696 596.908 183.711 596.908 183.711 601.573 248.31 624.31 296.257Z" fill="#040000" fill-rule="nonzero" fill-opacity="1" transform="matrix(1.69179 0 0 1 2203.78 1234)"/><path d="M654.911 296.257 663.758 296.257C663.758 296.257 670.963 261.251 678.505 223.035 693.252 148.318 642.13 106.045 642.13 106.045 642.13 106.045 686.37 154.218 671.623 220.086 666.431 243.288 660.81 277.577 654.911 296.257Z" fill="#040000" fill-rule="nonzero" fill-opacity="1" transform="matrix(1.69179 0 0 1 2203.78 1234)"/><path d="M675.557 296.257 683.421 296.257C683.421 296.257 656.877 226.967 657.861 171.913 657.861 171.913 655.895 244.153 675.557 296.257Z" fill="#040000" fill-rule="nonzero" fill-opacity="1" transform="matrix(1.69179 0 0 1 2203.78 1234)"/><path d="M658.843 295.165C658.843 295.165 625.418 119.698 678.505 51.8636 678.505 51.8636 619.518 109.357 652.945 295.165 655.402 297.622 658.843 295.165 658.843 295.165Z" fill="#040000" fill-rule="nonzero" fill-opacity="1" transform="matrix(1.69179 0 0 1 2203.78 1234)"/><path d="M92.5732 296.257 84.7084 296.257C84.7084 296.257 80.776 183.199 2.12784 139.942 2.12678 139.942 80.7749 176.317 92.5732 296.257Z" fill="#040000" fill-rule="nonzero" fill-opacity="1" transform="matrix(1.69179 0 0 1 2203.78 1234)"/><path d="M73.8938 296.257 67.9952 296.257C67.9952 296.257 65.0464 255.949 85.691 223.506 85.691 223.507 71.9276 253 73.8938 296.257Z" fill="#040000" fill-rule="nonzero" fill-opacity="1" transform="matrix(1.69179 0 0 1 2203.78 1234)"/><path d="M54.4614 296.257 49.2604 296.257C49.2604 296.257 45.3577 176.601 83.7248 123.278 83.7248 123.278 47.308 177.902 54.4614 296.257Z" fill="#040000" fill-rule="nonzero" fill-opacity="1" transform="matrix(1.69179 0 0 1 2203.78 1234)"/><path d="M42.4345 291.342 41.4509 296.257C41.4509 296.257 39.4847 219.574 21.7888 165.504 21.7888 165.504 40.4683 185.166 42.4345 291.342Z" fill="#040000" fill-rule="nonzero" fill-opacity="1" transform="matrix(1.69179 0 0 1 2203.78 1234)"/><path d="M59.1467 296.257 67.9952 296.257C67.9952 296.257 60.1303 201.878 107.319 149.774 107.319 149.774 62.0965 190.082 59.1467 296.257Z" fill="#040000" fill-rule="nonzero" fill-opacity="1" transform="matrix(1.69179 0 0 1 2203.78 1234)"/><path d="M155.368 296.257 166.81 296.257C166.81 296.257 169.256 202.28 96.5056 134.445 96.5056 134.445 163.109 207.376 155.368 296.257Z" fill="#040000" fill-rule="nonzero" fill-opacity="1" transform="matrix(1.69179 0 0 1 2203.78 1234)"/><path d="M591.992 296.257 600.84 296.257C600.84 296.257 596.908 181.233 574.297 107.5 574.297 107.5 592.975 187.132 591.992 296.257Z" fill="#040000" fill-rule="nonzero" fill-opacity="1" transform="matrix(1.69179 0 0 1 2203.78 1234)"/><path d="M689.32 296.257 697.185 296.257C697.185 296.257 697.185 222.524 713.897 187.132 713.897 187.132 693.252 227.44 689.32 296.257Z" fill="#040000" fill-rule="nonzero" fill-opacity="1" transform="matrix(1.69179 0 0 1 2203.78 1234)"/><path d="M707.016 296.257 713.897 296.257C713.897 296.257 716.846 202.861 693.252 167.47 693.252 167.47 710.948 197.945 707.016 296.257Z" fill="#040000" fill-rule="nonzero" fill-opacity="1" transform="matrix(1.69179 0 0 1 2203.78 1234)"/><path d="M733.56 296.257 726.679 296.257C726.679 296.257 723.73 219.574 708.983 132.078 708.982 132.078 728.644 209.744 733.56 296.257Z" fill="#040000" fill-rule="nonzero" fill-opacity="1" transform="matrix(1.69179 0 0 1 2203.78 1234)"/><path d="M754.205 296.257 747.324 296.257C747.324 296.257 738.475 175.335 785.665 146.825 785.664 146.825 744.374 179.267 754.205 296.257Z" fill="#040000" fill-rule="nonzero" fill-opacity="1" transform="matrix(1.69179 0 0 1 2203.78 1234)"/><path d="M199.732 296.257 192.851 296.257C192.851 296.257 184.003 175.335 231.192 146.825 231.191 146.825 189.901 179.267 199.732 296.257Z" fill="#040000" fill-rule="nonzero" fill-opacity="1" transform="matrix(1.69179 0 0 1 2203.78 1234)"/><path d="M763.053 296.257 771.901 296.257C771.901 296.257 776.817 212.692 750.272 163.537 750.272 163.537 771.901 208.76 763.053 296.257Z" fill="#040000" fill-rule="nonzero" fill-opacity="1" transform="matrix(1.69179 0 0 1 2203.78 1234)"/><path d="M737.493 296.257 747.324 296.257C747.324 296.257 737.493 152.723 769.935 89.8042 769.935 89.8042 737.493 131.094 737.493 296.257Z" fill="#040000" fill-rule="nonzero" fill-opacity="1" transform="matrix(1.69179 0 0 1 2203.78 1234)"/><path d="M784.681 296.257 790.178 296.257C790.178 296.257 800.483 154.023 848.583 202.81 836.215 184.946 821.098 182.883 807.355 204.87 796.77 221.808 788.117 264.65 784.681 296.257Z" fill="#040000" fill-rule="nonzero" fill-opacity="1" transform="matrix(1.69179 0 0 1 2203.78 1234)"/><path d="M242.988 0.742245C242.988 0.742245 298.613 80.5548 300.949 296.257 298.042 296.257 292.77 296.257 292.77 296.257 292.77 296.257 292.799 96.4301 242.988 0.742245Z" fill="#040000" fill-rule="nonzero" fill-opacity="1" transform="matrix(1.69179 0 0 1 2203.78 1234)"/><path d="M726.678 296.257 713.897 296.257C713.897 296.257 701.773 185.166 745.03 65.8822 745.031 65.8822 710.948 168.781 726.678 296.257Z" fill="#040000" fill-rule="nonzero" fill-opacity="1" transform="matrix(1.69179 0 0 1 2203.78 1234)"/><path d="M470.928 296.257 480.121 296.257C480.121 296.257 477.625 150.175 446.165 96.4323 446.166 96.4323 478.934 180.323 470.928 296.257Z" fill="#040000" fill-rule="nonzero" fill-opacity="1" transform="matrix(1.69179 0 0 1 2203.78 1234)"/><path d="M418.942 296.257 410.493 296.257C410.493 296.257 409.464 268.146 402.908 215.715 402.908 215.715 414.004 239.164 418.942 296.257Z" fill="#040000" fill-rule="nonzero" fill-opacity="1" transform="matrix(1.69179 0 0 1 2203.78 1234)"/><path d="M799.429 295.929 808.604 295.929C808.604 295.929 812.538 233.009 790.254 200.239 790.254 200.239 807.292 230.388 799.429 295.929Z" fill="#040000" fill-rule="nonzero" fill-opacity="1" transform="matrix(1.69179 0 0 1 2203.78 1234)"/></g></g></g><rect x="2607" y="1241" width="113" height="90.0001" fill="#FFFFFF" fill-opacity="1"/><rect x="2736" y="1371" width="113" height="90.0001" fill="#FFFFFF" fill-opacity="1"/></g></g></svg>